<svg xmlns="http://www.w3.org/2000/svg" width="90" height="60" viewBox="0 0 90 60">
  <g id="Group_83464" data-name="Group 83464" transform="translate(-122 -13)">
    <rect id="Rectangle_27972" data-name="Rectangle 27972" width="90" height="60" rx="4" transform="translate(122 13)" fill="#b5b5b5"/>
    <g id="image" transform="translate(148.995 25)">
      <path id="Path_128164" data-name="Path 128164" d="M31.5,4.5H4.5a2.25,2.25,0,0,0-2.25,2.25v22.5A2.25,2.25,0,0,0,4.5,31.5h27a2.25,2.25,0,0,0,2.25-2.25V6.75A2.25,2.25,0,0,0,31.5,4.5ZM4.5,2.25A4.5,4.5,0,0,0,0,6.75v22.5a4.5,4.5,0,0,0,4.5,4.5h27a4.5,4.5,0,0,0,4.5-4.5V6.75a4.5,4.5,0,0,0-4.5-4.5H4.5Z" fill-rule="evenodd"/>
      <path id="Path_128165" data-name="Path 128165" d="M23.958,17.2a1.125,1.125,0,0,1,1.3-.209l8.5,4.381V31.5H2.255V27l5.954-5.3a1.125,1.125,0,0,1,1.417-.14l5.985,3.989,8.348-8.348Z"/>
      <path id="Path_128166" data-name="Path 128166" d="M10.13,15.75a3.375,3.375,0,1,0-3.375-3.375A3.375,3.375,0,0,0,10.13,15.75Z" fill-rule="evenodd"/>
    </g>
  </g>
</svg>
