<svg width="164" height="193" viewBox="0 0 164 193" fill="none" xmlns="http://www.w3.org/2000/svg">
<path d="M82.0001 180.687C127.009 180.687 163.496 144.199 163.496 99.1903C163.496 54.1812 127.009 17.6941 82.0001 17.6941C36.991 17.6941 0.503906 54.1812 0.503906 99.1903C0.503906 144.199 36.991 180.687 82.0001 180.687Z" fill="url(#paint0_linear_1201_12871)"/>
<g filter="url(#filter0_d_1201_12871)">
<path d="M128.724 64.4187H35.2749C32.2743 64.4187 29.8418 66.8512 29.8418 69.8518L29.8418 183.946C29.8418 186.947 32.2743 189.38 35.2749 189.38H128.724C131.724 189.38 134.157 186.947 134.157 183.946L134.157 69.8518C134.157 66.8512 131.724 64.4187 128.724 64.4187Z" fill="white"/>
</g>
<path d="M71.133 80.7177H42.8809C41.0806 80.7177 39.6211 82.1771 39.6211 83.9775C39.6211 85.7779 41.0806 87.2373 42.8809 87.2373H71.133C72.9333 87.2373 74.3928 85.7779 74.3928 83.9775C74.3928 82.1771 72.9333 80.7177 71.133 80.7177Z" fill="#D0D5DD"/>
<path d="M90.692 94.844H42.8809C41.0806 94.844 39.6211 96.3035 39.6211 98.1038C39.6211 99.9042 41.0806 101.364 42.8809 101.364H90.692C92.4924 101.364 93.9519 99.9042 93.9519 98.1038C93.9519 96.3035 92.4924 94.844 90.692 94.844Z" fill="#EAECF0"/>
<path d="M71.133 110.056H42.8809C41.0806 110.056 39.6211 111.516 39.6211 113.316C39.6211 115.116 41.0806 116.576 42.8809 116.576H71.133C72.9333 116.576 74.3928 115.116 74.3928 113.316C74.3928 111.516 72.9333 110.056 71.133 110.056Z" fill="#D0D5DD"/>
<path d="M90.692 124.182H42.8809C41.0806 124.182 39.6211 125.642 39.6211 127.442C39.6211 129.243 41.0806 130.702 42.8809 130.702H90.692C92.4924 130.702 93.9519 129.243 93.9519 127.442C93.9519 125.642 92.4924 124.182 90.692 124.182Z" fill="#EAECF0"/>
<path d="M71.1349 139.396H42.8829C41.0825 139.396 39.623 140.855 39.623 142.655C39.623 144.456 41.0825 145.915 42.8829 145.915H71.1349C72.9353 145.915 74.3948 144.456 74.3948 142.655C74.3948 140.855 72.9353 139.396 71.1349 139.396Z" fill="#D0D5DD"/>
<path d="M90.694 153.522H42.8829C41.0825 153.522 39.623 154.981 39.623 156.782C39.623 158.582 41.0825 160.042 42.8829 160.042H90.694C92.4944 160.042 93.9538 158.582 93.9538 156.782C93.9538 154.981 92.4944 153.522 90.694 153.522Z" fill="#EAECF0"/>
<g filter="url(#filter1_d_1201_12871)">
<path d="M128.722 9H35.2729C32.2723 9 29.8398 11.4325 29.8398 14.4331L29.8398 47.0316C29.8398 50.0322 32.2723 52.4646 35.2729 52.4646H128.722C131.723 52.4646 134.155 50.0322 134.155 47.0316V14.4331C134.155 11.4325 131.723 9 128.722 9Z" fill="#98A2B3"/>
</g>
<path d="M71.133 20.9537H42.8809C41.0806 20.9537 39.6211 22.4132 39.6211 24.2136C39.6211 26.0139 41.0806 27.4734 42.8809 27.4734H71.133C72.9333 27.4734 74.3928 26.0139 74.3928 24.2136C74.3928 22.4132 72.9333 20.9537 71.133 20.9537Z" fill="#EAECF0"/>
<path d="M90.692 35.0801H42.8809C41.0806 35.0801 39.6211 36.5396 39.6211 38.3399C39.6211 40.1403 41.0806 41.5998 42.8809 41.5998H90.692C92.4924 41.5998 93.9519 40.1403 93.9519 38.3399C93.9519 36.5396 92.4924 35.0801 90.692 35.0801Z" fill="white"/>
<defs>
<filter id="filter0_d_1201_12871" x="23.8418" y="55.4187" width="116.314" height="136.961" filterUnits="userSpaceOnUse" color-interpolation-filters="sRGB">
<feFlood flood-opacity="0" result="BackgroundImageFix"/>
<feColorMatrix in="SourceAlpha" type="matrix" values="0 0 0 0 0 0 0 0 0 0 0 0 0 0 0 0 0 0 127 0" result="hardAlpha"/>
<feOffset dy="-3"/>
<feGaussianBlur stdDeviation="3"/>
<feColorMatrix type="matrix" values="0 0 0 0 0.788235 0 0 0 0 0.803922 0 0 0 0 0.85098 0 0 0 0.349 0"/>
<feBlend mode="normal" in2="BackgroundImageFix" result="effect1_dropShadow_1201_12871"/>
<feBlend mode="normal" in="SourceGraphic" in2="effect1_dropShadow_1201_12871" result="shape"/>
</filter>
<filter id="filter1_d_1201_12871" x="23.8398" y="0" width="116.314" height="55.4646" filterUnits="userSpaceOnUse" color-interpolation-filters="sRGB">
<feFlood flood-opacity="0" result="BackgroundImageFix"/>
<feColorMatrix in="SourceAlpha" type="matrix" values="0 0 0 0 0 0 0 0 0 0 0 0 0 0 0 0 0 0 127 0" result="hardAlpha"/>
<feOffset dy="-3"/>
<feGaussianBlur stdDeviation="3"/>
<feColorMatrix type="matrix" values="0 0 0 0 0.788235 0 0 0 0 0.803922 0 0 0 0 0.85098 0 0 0 0.349 0"/>
<feBlend mode="normal" in2="BackgroundImageFix" result="effect1_dropShadow_1201_12871"/>
<feBlend mode="normal" in="SourceGraphic" in2="effect1_dropShadow_1201_12871" result="shape"/>
</filter>
<linearGradient id="paint0_linear_1201_12871" x1="82.0001" y1="17.6941" x2="82.0001" y2="180.687" gradientUnits="userSpaceOnUse">
<stop stop-color="#EAECF0"/>
<stop offset="1" stop-color="#EAECF0"/>
</linearGradient>
</defs>
</svg>
