<svg width="20" height="17" viewBox="0 0 20 17" fill="none" xmlns="http://www.w3.org/2000/svg">
<path d="M19.0915 5.00028H5.45508V0.455078H18.1826C18.4234 0.455769 18.6542 0.551755 18.8246 0.722067C18.9949 0.892379 19.0908 1.12317 19.0915 1.36403V5.00028Z" fill="#F7AE30"/>
<path d="M19.0906 16.3638H0.908952C0.668095 16.3631 0.437301 16.2671 0.266989 16.0968C0.096677 15.9265 0.000690798 15.6957 0 15.4548V0.908952C0.000690798 0.668096 0.096677 0.437301 0.266989 0.266989C0.437301 0.096677 0.668095 0.000690798 0.908952 0H4.68178C4.86374 0 5.09109 0.0436366 5.22724 0.181965L8.36384 2.54576C8.49999 2.68366 8.7269 2.72729 8.90886 2.72729H19.0906C19.3315 2.72798 19.5623 2.82397 19.7326 2.99428C19.9029 3.16459 19.9989 3.39539 19.9996 3.63625V15.4548C19.9989 15.6957 19.9029 15.9265 19.7326 16.0968C19.5623 16.2671 19.3315 16.3631 19.0906 16.3638Z" fill="#FFCA4F"/>
<path d="M12.3438 9.4375H10.1562V7.5625C10.1562 7.25125 9.86312 7 9.5 7C9.13687 7 8.84375 7.25125 8.84375 7.5625V9.4375H6.65625C6.29312 9.4375 6 9.68875 6 10C6 10.3113 6.29312 10.5625 6.65625 10.5625H8.84375V12.4375C8.84375 12.7488 9.13687 13 9.5 13C9.86312 13 10.1562 12.7488 10.1562 12.4375V10.5625H12.3438C12.7069 10.5625 13 10.3113 13 10C13 9.68875 12.7069 9.4375 12.3438 9.4375Z" fill="#B35E3E"/>
</svg>
