<svg width="24" height="24" viewBox="0 0 24 24" fill="none" xmlns="http://www.w3.org/2000/svg">
<path d="M21 2H3C2.4 2 2 2.4 2 3V21C2 21.6 2.4 22 3 22H21C21.6 22 22 21.6 22 21V3C22 2.4 21.6 2 21 2ZM8.3 11H6.7V10.3C6.7 9.9 6.7 9.4 6.2 9.4C5.7 9.4 5.6 9.9 5.6 10.3V13.8C5.6 14.3 5.7 14.7 6.2 14.7C6.7 14.7 6.7 14.2 6.7 13.8V13H8.3V13.6C8.3 14.9 7.8 15.8 6.2 15.8C4.5 15.8 4 14.8 4 13.3V10.6C4 9.1 4.5 8.1 6.2 8.1C7.8 8.1 8.3 9 8.3 10.3V11ZM12.1 15.7L11.3 12.4H10.8V15.7H9.2V8.3H11.3C12.8 8.3 13.8 8.7 13.8 10.3C13.8 11.2 13.6 11.8 12.9 12.2L13.9 15.8H12.1V15.7ZM18.9 15.7L18.8 10.7L17.9 15.7H16.9L16 10.7L15.9 15.7H14.7L14.8 8.2H16.6L17.4 12.5L18.3 8.2H20L20.1 15.7H18.9Z" fill="white"/>
<path d="M11.3999 9.40002H10.8999V11.5H11.3999C12.0999 11.5 12.2999 11.1 12.2999 10.4C12.1999 9.70002 11.9999 9.40002 11.3999 9.40002Z" fill="white"/>
</svg>
