<svg width="15" height="14" viewBox="0 0 15 14" fill="none" xmlns="http://www.w3.org/2000/svg">
<path d="M13.2972 2.92388H12.3267C12.4547 2.72092 12.5392 2.4931 12.5633 2.25216C12.6402 1.48214 12.2354 0.791871 11.5462 0.48584C10.9127 0.204541 10.2008 0.319534 9.68822 0.785297L8.4627 1.89792C8.22403 1.63642 7.88093 1.47207 7.50015 1.47207C7.11869 1.47207 6.77505 1.63694 6.53632 1.89925L5.30924 0.785166C4.79578 0.319403 4.08417 0.204854 3.45097 0.485997C2.76196 0.792053 2.35706 1.48256 2.43425 2.25255C2.45839 2.49331 2.54282 2.72103 2.67081 2.92388H1.70305C1.22279 2.92388 0.833496 3.31389 0.833496 3.79497V5.1016C0.833496 5.34213 1.02816 5.53715 1.26829 5.53715H13.732C13.9721 5.53715 14.1668 5.34215 14.1668 5.1016V3.79497C14.1668 3.31389 13.7775 2.92388 13.2972 2.92388ZM6.1958 2.77871V2.92388H4.15042C3.61 2.92388 3.18469 2.4192 3.31966 1.85555C3.37912 1.60733 3.55797 1.39574 3.7893 1.28863C4.10695 1.14155 4.45883 1.18876 4.72562 1.43067L6.19617 2.76587C6.19609 2.77018 6.1958 2.7744 6.1958 2.77871ZM11.7005 2.13652C11.6681 2.58921 11.2599 2.92393 10.8069 2.92393H8.8045V2.77876C8.8045 2.77362 8.80418 2.76853 8.80413 2.76339C9.13726 2.46089 9.85994 1.80474 10.2519 1.44883C10.4746 1.24657 10.7863 1.15216 11.0745 1.23825C11.4879 1.3618 11.7307 1.71403 11.7005 2.13652Z" fill="#FF9E17"/>
<path d="M1.70312 6.4082V12.7962C1.70312 13.2773 2.09242 13.6673 2.57268 13.6673H6.63064V6.4082H1.70312Z" fill="#FF9E17"/>
<path d="M8.36963 6.4082V13.6673H12.4276C12.9078 13.6673 13.2971 13.2773 13.2971 12.7962V6.4082H8.36963Z" fill="#FF9E17"/>
</svg>
