<svg width="15" height="14" viewBox="0 0 15 14" fill="none" xmlns="http://www.w3.org/2000/svg">
<path fill-rule="evenodd" clip-rule="evenodd" d="M8.34566 0.530621C7.81312 0.268439 7.18718 0.268439 6.65463 0.530621L1.3504 3.14214C0.661198 3.48146 0.661193 4.45921 1.3504 4.79854L6.65463 7.41003C7.18718 7.67227 7.81312 7.67227 8.34566 7.41009L13.6499 4.79854C14.3391 4.45922 14.3391 3.48147 13.6499 3.14214L8.34566 0.530621ZM1.38083 6.15743C1.46523 6.11585 1.56414 6.11585 1.64853 6.15743L6.65463 8.62215C7.18718 8.88433 7.81312 8.88433 8.34566 8.62215L13.3518 6.15743C13.4361 6.11585 13.535 6.11585 13.6195 6.15743L13.6499 6.1724C14.3391 6.51173 14.3391 7.48948 13.6499 7.82882L8.34566 10.4403C7.81312 10.7025 7.18718 10.7025 6.65463 10.4403L1.3504 7.82882C0.661193 7.48948 0.661198 6.51173 1.3504 6.1724L1.38083 6.15743ZM1.64853 9.18778C1.56414 9.14621 1.46523 9.14621 1.38083 9.18778L1.3504 9.20275C0.661198 9.54208 0.661193 10.5198 1.3504 10.8592L6.65463 13.4707C7.18718 13.7329 7.81312 13.7329 8.34566 13.4707L13.6499 10.8592C14.3391 10.5198 14.3391 9.54208 13.6499 9.20275L13.6195 9.18778C13.535 9.14621 13.4361 9.14621 13.3518 9.18778L8.34566 11.6525C7.81312 11.9147 7.18718 11.9147 6.65463 11.6525L1.64853 9.18778Z" fill="#FF9E17"/>
</svg>
