<svg width="13" height="14" viewBox="0 0 13 14" fill="none" xmlns="http://www.w3.org/2000/svg">
<path d="M2.65039 5.94141H6.15822V8.70974H2.65039V5.94141Z" fill="#FF9E17"/>
<path d="M6.15039 11.0527H6.93172V13.6671H6.15039V11.0527Z" fill="#FF9E17"/>
<path d="M0.5 9.49023H5.3688V10.2716H0.5V9.49023Z" fill="#FF9E17"/>
<path d="M1.03516 11.0527H5.36894V13.6671H1.03516V11.0527Z" fill="#FF9E17"/>
<path d="M7.71289 9.49023H12.5984V10.2716H7.71289V9.49023Z" fill="#FF9E17"/>
<path d="M7.71289 11.0527H12.0634V13.6671H7.71289V11.0527Z" fill="#FF9E17"/>
<path d="M6.15822 2.13083H5.51018C4.83735 2.10523 4.83789 1.14073 5.51018 1.11539H5.65051C5.93046 1.11539 6.15824 1.34315 6.15824 1.62312V2.13083H6.93949V1.62312C6.93949 1.34315 7.16724 1.11539 7.44721 1.11539H7.58755C8.26036 1.14099 8.25986 2.10546 7.58755 2.13083H6.93951V5.15957H10.4473V2.13083H8.77228C9.1435 1.30471 8.49676 0.319205 7.58755 0.334152H7.44721C7.09823 0.334152 6.78121 0.473578 6.54886 0.699643C6.31655 0.473578 5.99952 0.334152 5.65051 0.334152H5.51018C4.60084 0.319205 3.95426 1.30482 4.32545 2.13083H2.65039V5.15957H6.15822V2.13083Z" fill="#FF9E17"/>
<path d="M6.93945 5.94141H10.4473V8.70974H6.93945V5.94141Z" fill="#FF9E17"/>
<path d="M6.15039 9.49023H6.93172V10.2716H6.15039V9.49023Z" fill="#FF9E17"/>
</svg>
