<svg width="1920" height="1080" viewBox="0 0 1920 1080" fill="none" xmlns="http://www.w3.org/2000/svg">
<rect width="1920" height="1080" fill="#F7F7F9"/>
<g clip-path="url(#clip0_6743_35864)">
<path d="M121 133.648L121 199.352C121 205.785 126.215 211 132.648 211L198.352 211C204.785 211 210 205.785 210 199.352L210 133.648C210 127.215 204.785 122 198.352 122L132.648 122C126.215 122 121 127.215 121 133.648Z" stroke="#007BFF" stroke-opacity="0.08"/>
<path d="M144.391 154.959L144.391 282.238C144.391 286.143 147.556 289.309 151.462 289.309L278.74 289.309C282.645 289.309 285.811 286.143 285.811 282.238L285.811 154.959C285.811 151.054 282.645 147.888 278.74 147.888L151.462 147.888C147.556 147.888 144.391 151.054 144.391 154.959Z" fill="#E4EEF9"/>
</g>
<path opacity="0.16" d="M1803.7 845H1698.3C1690.4 845 1684 851.356 1684 859.197V963.803C1684 971.644 1690.4 978 1698.3 978H1803.7C1811.6 978 1818 971.644 1818 963.803V859.197C1818 851.356 1811.6 845 1803.7 845Z" stroke="#00A3FF" stroke-width="2" stroke-dasharray="8 8"/>
<path opacity="0.1" d="M1736.52 815H1650.48C1646.35 815 1643 818.383 1643 822.556V909.444C1643 913.617 1646.35 917 1650.48 917H1736.52C1740.65 917 1744 913.617 1744 909.444V822.556C1744 818.383 1740.65 815 1736.52 815Z" fill="#00A3FF"/>
<defs>
<clipPath id="clip0_6743_35864">
<rect width="168.997" height="165.462" fill="white" transform="translate(120.518 289.748) rotate(-90)"/>
</clipPath>
</defs>
</svg>
