<svg width="55" height="36" viewBox="0 0 55 36" fill="none" xmlns="http://www.w3.org/2000/svg">
<g clip-path="url(#clip0_662_5277)">
<path fill-rule="evenodd" clip-rule="evenodd" d="M28.7331 11.6707C29.1997 11.6707 29.6663 11.6702 30.133 11.6697H30.1332C31.5339 11.6681 32.9358 11.6665 34.3424 11.6791C34.6856 11.6791 34.8028 11.5703 34.828 11.2438C35.0791 7.60189 32.3666 4.61306 28.9256 4.39538C27.8289 4.32841 26.7154 4.26143 25.6354 4.54608C23.1238 5.20748 21.5498 6.82329 20.9135 9.32655C20.8214 9.67817 20.6959 9.7619 20.361 9.74515C19.8503 9.72003 19.3312 9.72003 18.8121 9.74515C18.4689 9.7619 18.3852 9.65306 18.4354 9.32655C18.7284 7.49306 19.4568 5.85213 20.6959 4.47073C25.5684 -1.00462 34.4177 0.803755 36.7619 7.74422C37.214 9.07538 37.348 10.4484 37.1554 11.8298C37.0131 12.8512 36.7787 13.8558 36.3098 14.7852C36.201 15.0112 36.0838 15.12 35.8159 15.12C34.5782 15.1164 33.3406 15.1175 32.103 15.1185H32.1022C30.4517 15.1199 28.8012 15.1212 27.1507 15.1117C25.1414 15.1033 23.5089 13.8977 22.881 12.0224C22.7973 11.7628 22.8056 11.6624 23.1238 11.6624C24.5236 11.6749 25.9235 11.6734 27.3268 11.6718L27.3282 11.6718C27.7961 11.6713 28.2643 11.6707 28.7331 11.6707ZM35.6317 17.1377C34.7845 17.1953 34.1717 17.673 33.5392 18.166L33.5052 18.1926C29.4112 21.374 23.308 20.5452 20.2773 16.4261C19.3731 15.1954 18.7535 13.8475 18.5024 12.3405C18.4605 12.1061 18.3433 12.014 18.1256 11.9721C17.7991 11.9052 17.481 11.8131 17.1628 11.6707C17.4455 11.6707 17.7282 11.6713 18.0108 11.6718C18.8579 11.6734 19.7039 11.6749 20.5452 11.6624C20.7949 11.6624 20.8294 11.7948 20.8792 11.9856L20.8801 11.9889C21.5414 14.6679 23.2159 16.3089 25.8949 16.9368C26.3135 17.0372 26.7489 17.0456 27.1842 17.0456H35.1712C35.1829 17.0456 35.1947 17.0455 35.2065 17.0452C35.2174 17.045 35.2282 17.0448 35.2391 17.0445C35.3692 17.0413 35.5035 17.038 35.6317 17.1377ZM23.2242 9.72841H27.7787C29.3275 9.72841 30.8763 9.72841 32.4084 9.73678C32.7349 9.73678 32.7768 9.65306 32.6763 9.36004C32.1656 7.8698 31.1526 6.89027 29.6456 6.44655C28.6912 6.17027 27.7033 6.2205 26.7405 6.31259C24.8652 6.48841 23.5842 7.5098 22.9145 9.27632C22.747 9.72004 22.7638 9.72841 23.2242 9.72841Z" fill="url(#paint0_linear_662_5277)"/>
</g>
<path d="M10.8283 30.3087C10.8283 30.5377 10.8151 30.7799 10.7887 31.0354H4.99716C5.04124 31.7489 5.28365 32.3083 5.72441 32.7135C6.17397 33.1099 6.7161 33.3081 7.35079 33.3081C7.87088 33.3081 8.30282 33.1892 8.64661 32.9513C8.99921 32.7047 9.24603 32.3788 9.38707 31.9735H10.6829C10.489 32.6694 10.1011 33.2376 9.5193 33.6781C8.9375 34.1097 8.21467 34.3255 7.35079 34.3255C6.66321 34.3255 6.04616 34.1714 5.49962 33.8631C4.9619 33.5547 4.53878 33.1187 4.23025 32.5549C3.92172 31.9824 3.76746 31.3217 3.76746 30.5729C3.76746 29.8242 3.91731 29.1679 4.21703 28.6041C4.51674 28.0404 4.93545 27.6087 5.47318 27.3092C6.01971 27.0009 6.64558 26.8467 7.35079 26.8467C8.03836 26.8467 8.64661 26.9965 9.17551 27.296C9.70442 27.5955 10.1099 28.0095 10.392 28.5381C10.6829 29.0578 10.8283 29.648 10.8283 30.3087ZM9.58541 30.0576C9.58541 29.5995 9.48404 29.2075 9.28129 28.8816C9.07854 28.5469 8.80087 28.2958 8.44827 28.1284C8.10448 27.9523 7.72102 27.8642 7.2979 27.8642C6.68966 27.8642 6.16957 28.058 5.73763 28.4456C5.3145 28.8332 5.07209 29.3705 5.01038 30.0576H9.58541Z" fill="white"/>
<path d="M16.8016 34.2991C15.9465 34.2991 15.1664 34.1009 14.4612 33.7045C13.7559 33.2993 13.1962 32.7399 12.7819 32.0264C12.3764 31.3041 12.1736 30.4936 12.1736 29.5951C12.1736 28.6966 12.3764 27.8906 12.7819 27.1771C13.1962 26.4547 13.7559 25.8954 14.4612 25.499C15.1664 25.0938 15.9465 24.8912 16.8016 24.8912C17.6654 24.8912 18.45 25.0938 19.1552 25.499C19.8604 25.8954 20.4157 26.4503 20.8212 27.1639C21.2267 27.8774 21.4295 28.6878 21.4295 29.5951C21.4295 30.5024 21.2267 31.3129 20.8212 32.0264C20.4157 32.7399 19.8604 33.2993 19.1552 33.7045C18.45 34.1009 17.6654 34.2991 16.8016 34.2991ZM16.8016 33.2552C17.4451 33.2552 18.0224 33.1055 18.5337 32.806C19.0538 32.5065 19.4593 32.0792 19.7502 31.5243C20.0499 30.9693 20.1998 30.3263 20.1998 29.5951C20.1998 28.8552 20.0499 28.2121 19.7502 27.666C19.4593 27.111 19.0582 26.6838 18.5469 26.3843C18.0357 26.0848 17.4539 25.935 16.8016 25.935C16.1492 25.935 15.5674 26.0848 15.0562 26.3843C14.5449 26.6838 14.1394 27.111 13.8397 27.666C13.5488 28.2121 13.4033 28.8552 13.4033 29.5951C13.4033 30.3263 13.5488 30.9693 13.8397 31.5243C14.1394 32.0792 14.5449 32.5065 15.0562 32.806C15.5763 33.1055 16.1581 33.2552 16.8016 33.2552Z" fill="white"/>
<path d="M26.1732 27.9567H24.6526V34.2066H23.4493V27.9567H22.5105V26.9657H23.4493V26.4503C23.4493 25.6399 23.6565 25.0497 24.0708 24.6797C24.4939 24.301 25.1683 24.1116 26.0939 24.1116V25.1158C25.565 25.1158 25.1903 25.2215 24.9699 25.4329C24.7584 25.6355 24.6526 25.9747 24.6526 26.4503V26.9657H26.1732V27.9567Z" fill="white"/>
<path d="M30.7314 27.9567H29.2108V34.2066H28.0075V27.9567H27.0687V26.9657H28.0075V26.4503C28.0075 25.6399 28.2147 25.0497 28.629 24.6797C29.0521 24.301 29.7265 24.1116 30.6521 24.1116V25.1158C30.1231 25.1158 29.7485 25.2215 29.5281 25.4329C29.3166 25.6355 29.2108 25.9747 29.2108 26.4503V26.9657H30.7314V27.9567Z" fill="white"/>
<path d="M32.9624 25.7897C32.7332 25.7897 32.5393 25.7104 32.3806 25.5518C32.2219 25.3933 32.1426 25.1995 32.1426 24.9704C32.1426 24.7414 32.2219 24.5476 32.3806 24.3891C32.5393 24.2305 32.7332 24.1512 32.9624 24.1512C33.1828 24.1512 33.3679 24.2305 33.5177 24.3891C33.6764 24.5476 33.7558 24.7414 33.7558 24.9704C33.7558 25.1995 33.6764 25.3933 33.5177 25.5518C33.3679 25.7104 33.1828 25.7897 32.9624 25.7897ZM33.5442 26.9657V34.2066H32.3409V26.9657H33.5442Z" fill="white"/>
<path d="M35.352 30.5729C35.352 29.8242 35.5018 29.1723 35.8015 28.6173C36.1013 28.0536 36.5156 27.6175 37.0445 27.3092C37.5822 27.0009 38.1948 26.8467 38.8824 26.8467C39.7727 26.8467 40.5044 27.0626 41.0774 27.4942C41.6592 27.9258 42.0426 28.5248 42.2277 29.2912H40.9319C40.8085 28.8508 40.5661 28.5028 40.2047 28.2474C39.8521 27.9919 39.4113 27.8642 38.8824 27.8642C38.1948 27.8642 37.6395 28.102 37.2164 28.5777C36.7932 29.0446 36.5817 29.7096 36.5817 30.5729C36.5817 31.445 36.7932 32.1189 37.2164 32.5946C37.6395 33.0703 38.1948 33.3081 38.8824 33.3081C39.4113 33.3081 39.8521 33.1848 40.2047 32.9381C40.5573 32.6915 40.7997 32.3391 40.9319 31.881H42.2277C42.0338 32.621 41.6459 33.2156 41.0641 33.6649C40.4824 34.1053 39.7551 34.3255 38.8824 34.3255C38.1948 34.3255 37.5822 34.1714 37.0445 33.8631C36.5156 33.5547 36.1013 33.1187 35.8015 32.5549C35.5018 31.9912 35.352 31.3305 35.352 30.5729Z" fill="white"/>
<path d="M50.6512 30.3087C50.6512 30.5377 50.638 30.7799 50.6115 31.0354H44.82C44.8641 31.7489 45.1065 32.3083 45.5472 32.7135C45.9968 33.1099 46.5389 33.3081 47.1736 33.3081C47.6937 33.3081 48.1257 33.1892 48.4694 32.9513C48.822 32.7047 49.0689 32.3788 49.2099 31.9735H50.5057C50.3118 32.6694 49.9239 33.2376 49.3421 33.6781C48.7603 34.1097 48.0375 34.3255 47.1736 34.3255C46.486 34.3255 45.869 34.1714 45.3225 33.8631C44.7847 33.5547 44.3616 33.1187 44.0531 32.5549C43.7446 31.9824 43.5903 31.3217 43.5903 30.5729C43.5903 29.8242 43.7401 29.1679 44.0399 28.6041C44.3396 28.0404 44.7583 27.6087 45.296 27.3092C45.8425 27.0009 46.4684 26.8467 47.1736 26.8467C47.8612 26.8467 48.4694 26.9965 48.9983 27.296C49.5273 27.5955 49.9327 28.0095 50.2148 28.5381C50.5057 29.0578 50.6512 29.648 50.6512 30.3087ZM49.4082 30.0576C49.4082 29.5995 49.3069 29.2075 49.1041 28.8816C48.9014 28.5469 48.6237 28.2958 48.2711 28.1284C47.9273 27.9523 47.5439 27.8642 47.1207 27.8642C46.5125 27.8642 45.9924 28.058 45.5605 28.4456C45.1373 28.8332 44.8949 29.3705 44.8332 30.0576H49.4082Z" fill="white"/>
<defs>
<linearGradient id="paint0_linear_662_5277" x1="20.9721" y1="17.7907" x2="34.7861" y2="3.80934" gradientUnits="userSpaceOnUse">
<stop stop-color="#369BF1"/>
<stop offset="1" stop-color="#384AF7"/>
</linearGradient>
<clipPath id="clip0_662_5277">
<rect width="20.0763" height="18.8791" fill="white" transform="translate(17.1628 1.25586)"/>
</clipPath>
</defs>
</svg>
