<svg width="110" height="72" viewBox="0 0 110 72" fill="none" xmlns="http://www.w3.org/2000/svg">
<path d="M6.62957 71.9471C5.37193 71.9471 4.24005 71.7362 3.23394 71.3143C2.22782 70.8748 1.4373 70.2595 0.862383 69.4684C0.287461 68.6773 0 67.7544 0 66.6996H3.28783C3.3597 67.4907 3.67411 68.1411 4.23107 68.6509C4.80599 69.1607 5.60549 69.4157 6.62957 69.4157C7.68958 69.4157 8.51603 69.1695 9.10892 68.6773C9.70181 68.1675 9.99825 67.517 9.99825 66.726C9.99825 66.1107 9.80961 65.6097 9.43231 65.2229C9.07299 64.8361 8.61485 64.5373 8.05789 64.3263C7.5189 64.1154 6.76432 63.8868 5.79414 63.6407C4.57243 63.3243 3.5753 63.0079 2.80274 62.6914C2.04816 62.3574 1.40137 61.8476 0.862383 61.162C0.323394 60.4764 0.0538989 59.5622 0.0538989 58.4196C0.0538989 57.3648 0.323394 56.4419 0.862383 55.6508C1.40137 54.8597 2.15596 54.2532 3.12614 53.8313C4.09632 53.4094 5.21921 53.1984 6.49482 53.1984C8.30942 53.1984 9.79164 53.6467 10.9415 54.5432C12.1093 55.4222 12.7561 56.6352 12.8818 58.1822H9.48621C9.43231 57.5142 9.10892 56.9429 8.51603 56.4682C7.92314 55.9936 7.14161 55.7562 6.17143 55.7562C5.29108 55.7562 4.57243 55.976 4.01547 56.4155C3.45851 56.855 3.18004 57.4878 3.18004 58.3141C3.18004 58.8766 3.35072 59.3425 3.69208 59.7117C4.0514 60.0633 4.50056 60.3445 5.03955 60.5555C5.57854 60.7665 6.31516 60.995 7.24941 61.2411C8.48908 61.5751 9.4952 61.9091 10.2677 62.2431C11.0583 62.5772 11.723 63.0958 12.262 63.7989C12.819 64.4846 13.0974 65.4075 13.0974 66.5677C13.0974 67.4995 12.8369 68.3785 12.3159 69.2047C11.8128 70.0309 11.0672 70.699 10.0791 71.2088C9.10892 71.701 7.95908 71.9471 6.62957 71.9471Z" fill="#323232"/>
<path d="M28.3295 60.951V63.4825H17.2533V60.951H28.3295Z" fill="#323232"/>
<path d="M41.4445 71.9471C39.7018 71.9471 38.0938 71.5516 36.6206 70.7605C35.1653 69.9518 34.0065 68.8355 33.1441 67.4116C32.2997 65.97 31.8775 64.3527 31.8775 62.5596C31.8775 60.7665 32.2997 59.1579 33.1441 57.734C34.0065 56.31 35.1653 55.2025 36.6206 54.4114C38.0938 53.6027 39.7018 53.1984 41.4445 53.1984C43.2052 53.1984 44.8132 53.6027 46.2685 54.4114C47.7417 55.2025 48.9006 56.31 49.745 57.734C50.5894 59.1579 51.0116 60.7665 51.0116 62.5596C51.0116 64.3527 50.5894 65.97 49.745 67.4116C48.9006 68.8355 47.7417 69.9518 46.2685 70.7605C44.8132 71.5516 43.2052 71.9471 41.4445 71.9471ZM41.4445 69.3365C42.6842 69.3365 43.7891 69.0641 44.7593 68.5191C45.7295 67.9565 46.4841 67.1655 47.0231 66.1458C47.58 65.1086 47.8585 63.9132 47.8585 62.5596C47.8585 61.2059 47.58 60.0193 47.0231 58.9997C46.4841 57.9801 45.7295 57.1978 44.7593 56.6528C43.7891 56.1078 42.6842 55.8354 41.4445 55.8354C40.2049 55.8354 39.0999 56.1078 38.1298 56.6528C37.1596 57.1978 36.396 57.9801 35.839 58.9997C35.3001 60.0193 35.0306 61.2059 35.0306 62.5596C35.0306 63.9132 35.3001 65.1086 35.839 66.1458C36.396 67.1655 37.1596 67.9565 38.1298 68.5191C39.0999 69.0641 40.2049 69.3365 41.4445 69.3365Z" fill="#323232"/>
<path d="M60.4674 59.6853H57.7186V71.7625H54.6194V59.6853H52.8677V57.2329H54.6194V56.2045C54.6194 54.5345 55.0685 53.3215 55.9668 52.5655C56.8831 51.792 58.3115 51.4053 60.2518 51.4053V53.9104C59.3176 53.9104 58.6618 54.0862 58.2845 54.4378C57.9072 54.7718 57.7186 55.3607 57.7186 56.2045V57.2329H60.4674V59.6853Z" fill="#323232"/>
<path d="M69.6228 59.6853H66.8739V71.7625H63.7747V59.6853H62.023V57.2329H63.7747V56.2045C63.7747 54.5345 64.2239 53.3215 65.1222 52.5655C66.0385 51.792 67.4668 51.4053 69.4072 51.4053V53.9104C68.4729 53.9104 67.8172 54.0862 67.4399 54.4378C67.0626 54.7718 66.8739 55.3607 66.8739 56.2045V57.2329H69.6228V59.6853Z" fill="#323232"/>
<path d="M74.1159 55.308C73.5589 55.308 73.0918 55.1234 72.7145 54.7542C72.3372 54.385 72.1486 53.928 72.1486 53.383C72.1486 52.838 72.3372 52.3809 72.7145 52.0118C73.0918 51.6426 73.5589 51.458 74.1159 51.458C74.6549 51.458 75.113 51.6426 75.4903 52.0118C75.8676 52.3809 76.0563 52.838 76.0563 53.383C76.0563 53.928 75.8676 54.385 75.4903 54.7542C75.113 55.1234 74.6549 55.308 74.1159 55.308ZM75.6251 57.2329V71.7625H72.5528V57.2329H75.6251Z" fill="#323232"/>
<path d="M78.8419 64.4846C78.8419 62.9903 79.1473 61.6806 79.7581 60.5555C80.387 59.4128 81.2493 58.5338 82.3453 57.9185C83.4412 57.3033 84.6989 56.9956 86.1182 56.9956C87.9148 56.9956 89.3971 57.4175 90.5649 58.2613C91.7506 59.0876 92.5502 60.2742 92.9634 61.8212H89.6486C89.3791 61.1005 88.9479 60.5379 88.355 60.1336C87.7621 59.7293 87.0165 59.5271 86.1182 59.5271C84.8606 59.5271 83.8545 59.9666 83.0999 60.8456C82.3633 61.707 81.9949 62.92 81.9949 64.4846C81.9949 66.0491 82.3633 67.2709 83.0999 68.1499C83.8545 69.0289 84.8606 69.4684 86.1182 69.4684C87.8969 69.4684 89.0737 68.7037 89.6486 67.1742H92.9634C92.5322 68.6509 91.7237 69.8288 90.5379 70.7078C89.3521 71.5692 87.8789 71.9999 86.1182 71.9999C84.6989 71.9999 83.4412 71.6922 82.3453 71.0769C81.2493 70.4441 80.387 69.5651 79.7581 68.44C79.1473 67.2973 78.8419 65.9788 78.8419 64.4846Z" fill="#323232"/>
<path d="M109.842 64.1418C109.842 64.6867 109.806 65.179 109.734 65.6184H98.3883C98.4782 66.7787 98.9184 67.7104 99.7089 68.4136C100.499 69.1168 101.47 69.4684 102.619 69.4684C104.272 69.4684 105.44 68.7916 106.123 67.4379H109.438C108.988 68.774 108.171 69.8727 106.985 70.7341C105.817 71.578 104.362 71.9999 102.619 71.9999C101.2 71.9999 99.9245 71.6922 98.7926 71.0769C97.6787 70.4441 96.7983 69.5651 96.1515 68.44C95.5227 67.2973 95.2083 65.9788 95.2083 64.4846C95.2083 62.9903 95.5137 61.6806 96.1246 60.5555C96.7534 59.4128 97.6248 58.5338 98.7387 57.9185C99.8706 57.3033 101.164 56.9956 102.619 56.9956C104.021 56.9956 105.269 57.2945 106.365 57.8922C107.461 58.4899 108.315 59.3337 108.926 60.4236C109.536 61.496 109.842 62.7354 109.842 64.1418ZM106.635 63.1924C106.617 62.0849 106.213 61.1972 105.422 60.5291C104.632 59.8611 103.652 59.5271 102.485 59.5271C101.425 59.5271 100.517 59.8611 99.7628 60.5291C99.0082 61.1796 98.559 62.0673 98.4153 63.1924H106.635Z" fill="#323232"/>
<path fill-rule="evenodd" clip-rule="evenodd" d="M54.2511 0.973145C41.282 0.973145 30.8093 11.1468 30.8093 23.7456C30.8093 31.2576 34.5235 37.9415 40.3078 42.0819V42.0228C44.2046 43.5607 48.7103 44.2704 53.8248 44.2704C57.6608 44.2704 59.5483 43.0875 59.5483 40.7215C59.5483 38.4738 58.2696 37.2908 55.7124 37.2908H49.3192C42.1953 37.2908 38.6638 33.9193 38.6638 27.058C38.6638 19.9009 43.8393 16.352 54.2511 16.352C58.635 16.352 62.8362 17.0026 66.733 18.3039V25.461C62.8362 23.9231 58.5741 23.2133 54.0075 23.2133C49.1974 23.2133 46.8228 24.3963 46.8228 26.7622C46.8228 29.0099 48.2232 30.1929 51.024 30.1929H56.6866C64.4802 30.1929 68.377 33.5644 68.377 40.4257C68.377 41.0172 68.3161 41.5496 68.2552 42.0819C73.9786 37.9415 77.6928 31.3167 77.6928 23.8048C77.7537 11.1468 67.2201 0.973145 54.2511 0.973145Z" fill="#00AEEF"/>
</svg>
