<svg width="739" height="740" viewBox="0 0 739 740" fill="none" xmlns="http://www.w3.org/2000/svg">
<path d="M491.36 310.8C520.786 310.8 544.64 286.946 544.64 257.52C544.64 228.094 520.786 204.24 491.36 204.24C461.934 204.24 438.08 228.094 438.08 257.52C438.08 286.946 461.934 310.8 491.36 310.8Z" fill="#393939"/>
<path d="M236.8 535.76C266.226 535.76 290.08 511.906 290.08 482.48C290.08 453.054 266.226 429.2 236.8 429.2C207.374 429.2 183.52 453.054 183.52 482.48C183.52 511.906 207.374 535.76 236.8 535.76Z" fill="#95D0D5"/>
<path d="M491.36 657.12C520.786 657.12 544.64 633.266 544.64 603.84C544.64 574.414 520.786 550.56 491.36 550.56C461.934 550.56 438.08 574.414 438.08 603.84C438.08 633.266 461.934 657.12 491.36 657.12Z" fill="#158AE7"/>
<path d="M331.52 189.44C331.52 175.446 334.276 161.59 339.631 148.661C344.987 135.733 352.836 123.986 362.731 114.091C372.626 104.196 384.373 96.3465 397.301 90.9914C410.23 85.6363 424.086 82.88 438.08 82.88L438.08 189.44L331.52 189.44Z" fill="#158AE7"/>
<path d="M438.08 82.88C452.074 82.88 465.93 85.6363 478.859 90.9914C491.787 96.3465 503.534 104.196 513.429 114.091C523.324 123.986 531.173 135.733 536.529 148.661C541.884 161.59 544.64 175.446 544.64 189.44L438.08 189.44L438.08 82.88Z" fill="#95D0D5"/>
<path d="M195.36 82.88C223.621 82.88 250.725 94.1068 270.709 114.091C290.693 134.075 301.92 161.179 301.92 189.44L195.36 189.44L195.36 82.88Z" fill="#00AEEF"/>
<path d="M331.52 202.76C345.514 202.76 359.37 205.516 372.299 210.871C385.227 216.227 396.974 224.076 406.869 233.971C416.764 243.866 424.613 255.613 429.969 268.541C435.324 281.47 438.08 295.326 438.08 309.32L331.52 309.32V202.76Z" fill="#F2A619"/>
<path d="M544.64 444C558.634 444 572.49 446.756 585.419 452.111C598.347 457.467 610.094 465.316 619.989 475.211C629.884 485.106 637.733 496.853 643.089 509.781C648.444 522.71 651.2 536.566 651.2 550.56L544.64 550.56L544.64 444Z" fill="#95D0D5"/>
<path d="M304.88 657.12C290.886 657.12 277.03 654.364 264.101 649.009C251.173 643.653 239.426 635.804 229.531 625.909C219.636 616.014 211.787 604.267 206.431 591.339C201.076 578.41 198.32 564.554 198.32 550.56L304.88 550.56L304.88 657.12Z" fill="#F2A619"/>
<path d="M331.52 432.16C331.52 418.166 334.276 404.31 339.631 391.381C344.987 378.453 352.836 366.706 362.731 356.811C372.626 346.916 384.373 339.067 397.301 333.711C410.23 328.356 424.086 325.6 438.08 325.6C452.074 325.6 465.93 328.356 478.859 333.711C491.787 339.067 503.534 346.916 513.429 356.811C523.324 366.706 531.173 378.453 536.529 391.381C541.884 404.31 544.64 418.166 544.64 432.16L438.08 432.16H331.52Z" fill="#00AEEF"/>
<path d="M304.88 444C318.874 444 332.73 446.756 345.659 452.111C358.587 457.467 370.334 465.316 380.229 475.211C390.124 485.106 397.973 496.853 403.329 509.781C408.684 522.71 411.44 536.566 411.44 550.56L304.88 550.56L304.88 444Z" fill="#393939"/>
</svg>
