<svg width="283" height="58" viewBox="0 0 283 58" fill="none" xmlns="http://www.w3.org/2000/svg">
<path d="M92.096 51.1094L80.4365 36.7487L68.777 51.1094H61.8018L76.9147 32.4746L61.6309 13.5664H68.6744L80.4707 28.1322L92.267 13.5664H99.3106L83.9925 32.5088L99.1396 51.1435L92.096 51.1094Z" fill="#1D88FE"/>
<path d="M108.337 51.0762H102.798V13.4648L108.337 19.004V51.0762Z" fill="#1D88FE"/>
<path d="M117.432 51.1113H111.893V19.0391L117.432 13.5V51.1113Z" fill="#1D88FE"/>
<path d="M114.903 11.0017L113.227 12.6772L110.082 9.56567L107.005 12.6772L105.329 11.0017L110.082 6.21484L114.903 11.0017Z" fill="#1D88FE"/>
<path d="M117.227 8.60775L115.962 9.87286L110.115 4.06019L104.269 9.90705L103.003 8.64194C102.798 8.43679 102.798 8.09487 103.003 7.88971L104.542 6.35107L104.85 6.04334L107.209 3.68408L109.739 1.15386C109.944 0.948712 110.286 0.948712 110.492 1.15386L117.227 7.88971C117.433 8.06067 117.433 8.40259 117.227 8.60775Z" fill="#1D88FE"/>
<path d="M110.108 11.6371L108.077 13.668L110.108 15.6989L112.139 13.668L110.108 11.6371Z" fill="#1D88FE"/>
<path d="M179.628 15.3438L169.131 50.7668H162.566L155.112 23.9602L147.214 50.7668L140.683 50.801L130.631 15.3438H136.785L144.137 44.2019L152.104 15.3438H158.634L166.02 44.0651L173.405 15.3438H179.628Z" fill="#434050"/>
<path d="M189.442 48.8161C186.672 47.2774 184.484 45.1233 182.877 42.3538C181.27 39.5842 180.449 36.4727 180.449 32.9851C180.449 29.4975 181.27 26.4202 182.877 23.6507C184.484 20.8811 186.672 18.7612 189.442 17.1883C192.211 15.6497 195.254 14.8633 198.537 14.8633C201.853 14.8633 204.931 15.6497 207.7 17.1883C210.47 18.727 212.658 20.8811 214.265 23.6507C215.872 26.4202 216.659 29.4975 216.659 32.9851C216.659 36.4727 215.872 39.5842 214.265 42.3538C212.658 45.1233 210.47 47.2774 207.7 48.8161C204.931 50.3547 201.888 51.1411 198.537 51.1411C195.254 51.1069 192.211 50.3547 189.442 48.8161ZM204.794 44.4737C206.64 43.4137 208.076 41.8751 209.102 39.8919C210.128 37.9088 210.641 35.6179 210.641 32.9851C210.641 30.3523 210.128 28.0614 209.102 26.1125C208.076 24.1293 206.64 22.6249 204.794 21.5649C202.948 20.505 200.862 19.9921 198.537 19.9921C196.212 19.9921 194.092 20.505 192.28 21.5649C190.433 22.6249 188.997 24.1293 187.971 26.1125C186.946 28.0956 186.433 30.3865 186.433 32.9851C186.433 35.6179 186.946 37.9088 187.971 39.8919C188.997 41.8751 190.433 43.4137 192.28 44.4737C194.126 45.5336 196.212 46.0807 198.537 46.0807C200.862 46.0807 202.982 45.5336 204.794 44.4737Z" fill="#434050"/>
<path d="M236.865 36.0974C239.635 35.4136 241.721 34.1485 243.054 32.2337C244.388 30.3531 245.072 28.2332 245.072 25.9423C245.072 23.9592 244.593 22.1812 243.67 20.5742C242.746 18.9672 241.31 17.702 239.43 16.7447C237.549 15.7873 235.224 15.3086 232.523 15.3086H220.282V50.7316H226.095V20.0613H232.523C234.745 20.0613 236.387 20.5742 237.481 21.5999C238.575 22.6257 239.122 24.0618 239.122 25.9082C239.122 27.7545 238.575 29.1906 237.481 30.2847C236.387 31.3789 234.745 31.926 232.557 31.926H228.078L231.429 38.0805V38.1147L238.712 50.7658H245.653L236.865 36.0974Z" fill="#434050"/>
<path d="M256.287 15.3438H250.475V50.7668H256.287V15.3438Z" fill="#434050"/>
<path d="M280.7 50.7668H273.109L259.364 34.9016V34.9358L257.894 33.2262L259.364 31.4824L273.143 15.3438H280.426L265.04 33.0895L280.7 50.7668Z" fill="#434050"/>
<path d="M22.8286 53.4611L23.7012 55.0592C23.7012 55.0939 23.7361 55.0939 23.7361 55.1286L15.778 50.647L5.83029 45.0536C3.84076 43.9419 2.96815 41.6489 3.59643 39.5992C3.70114 39.2517 3.84075 38.9391 4.01528 38.5917L4.15489 38.3137C4.15489 38.3137 4.15489 38.3137 4.15489 38.279L4.50393 37.6536C5.58596 35.7429 8.02925 35.048 9.98387 36.125L10.6121 36.4724H10.6471L13.7535 38.2095L20.5249 42.0311L27.8897 46.1653L24.4342 48.0414C22.4795 49.0836 21.7815 51.5155 22.8286 53.4611Z" fill="#1D88FE"/>
<path d="M30.2285 56.0664C29.9493 56.2748 29.6003 56.4485 29.2861 56.5875L30.2285 56.0664Z" fill="#1D88FE"/>
<path d="M50.7523 44.8096C50.5429 45.018 50.2986 45.1917 50.0193 45.3307L30.2287 56.0659L29.2863 56.587L29.1467 56.6565C27.227 57.6987 24.8535 57.0039 23.7366 55.1278C23.7366 55.0931 23.7017 55.0931 23.7017 55.0584L22.8291 53.4602C21.7819 51.5147 22.48 49.0828 24.4346 48.0406L27.8901 46.1645L42.3055 38.3477V41.5439C42.3055 43.7673 44.1206 45.5392 46.3195 45.5392H48.4487C49.2864 45.5392 50.0892 45.2612 50.7523 44.8096Z" fill="#4A3AFF"/>
<path d="M52.4618 17.744V41.5419C52.4618 42.8969 51.7986 44.0781 50.7515 44.8076C50.0883 45.2593 49.3204 45.5372 48.4478 45.5372H46.3187C44.1197 45.5372 42.3047 43.7654 42.3047 41.5419V20.4538L45.4112 22.2604C47.3309 23.3721 49.7742 22.7467 50.8911 20.836L51.8335 19.2726C52.2524 18.5083 52.4269 17.7092 52.3571 16.9102C52.4269 17.1533 52.4618 17.4313 52.4618 17.744Z" fill="#F24C2E"/>
<path d="M51.8341 19.2732L50.8917 20.8366C49.7748 22.7474 47.3315 23.3727 45.4118 22.261L42.3053 20.4544L27.9248 12.0469L31.136 10.1014C33.0208 8.95495 33.6142 6.4883 32.4623 4.61225L31.5199 3.04888C31.4152 2.87517 31.3105 2.70147 31.1709 2.5625L50.403 13.8188C51.5549 14.4789 52.253 15.6601 52.3577 16.876C52.4275 17.6751 52.253 18.5089 51.8341 19.2732Z" fill="#FF9500"/>
<path d="M31.1357 10.1016L27.9245 12.0472L13.7535 20.6283V17.3626C13.7535 15.1392 11.9385 13.3673 9.7395 13.3673H7.61035C7.2264 13.3673 6.87736 13.4021 6.52832 13.5063L26.0048 1.72891C27.7151 0.686658 29.9141 1.06882 31.1706 2.5627C31.3102 2.70167 31.4149 2.87538 31.5196 3.04908L32.4621 4.61246C33.6139 6.4885 33.0205 8.95515 31.1357 10.1016Z" fill="#FADA00"/>
<path d="M13.7538 17.3625V38.2074L10.6473 36.4703H10.6124L9.98413 36.1229C8.0295 35.0459 5.58621 35.7408 4.50419 37.6515L4.15515 38.2769C4.15515 38.3116 4.15515 38.3116 4.15515 38.3116L4.01553 38.5896C3.84101 38.9022 3.70139 39.2497 3.59668 39.5971V17.3625C3.59668 15.5559 4.85323 13.9925 6.52862 13.5062C6.87766 13.4019 7.22671 13.3672 7.61065 13.3672H9.7398C11.9388 13.3672 13.7538 15.139 13.7538 17.3625Z" fill="#70B61C"/>
</svg>
