<svg width="48" height="45" viewBox="0 0 48 45" fill="none" xmlns="http://www.w3.org/2000/svg">
<path fill-rule="evenodd" clip-rule="evenodd" d="M24.2511 0.973145C11.282 0.973145 0.809326 11.1468 0.809326 23.7456C0.809326 31.2576 4.52347 37.9415 10.3078 42.0819V42.0228C14.2046 43.5607 18.7103 44.2704 23.8248 44.2704C27.6608 44.2704 29.5483 43.0875 29.5483 40.7215C29.5483 38.4738 28.2696 37.2908 25.7124 37.2908H19.3192C12.1953 37.2908 8.66383 33.9193 8.66383 27.058C8.66383 19.9009 13.8393 16.352 24.2511 16.352C28.635 16.352 32.8362 17.0026 36.733 18.3039V25.461C32.8362 23.9231 28.5741 23.2133 24.0075 23.2133C19.1974 23.2133 16.8228 24.3963 16.8228 26.7622C16.8228 29.0099 18.2232 30.1929 21.024 30.1929H26.6866C34.4802 30.1929 38.377 33.5644 38.377 40.4257C38.377 41.0172 38.3161 41.5496 38.2552 42.0819C43.9786 37.9415 47.6928 31.3167 47.6928 23.8048C47.7537 11.1468 37.2201 0.973145 24.2511 0.973145Z" fill="#00AEEF"/>
</svg>
