<svg width="48" height="48" viewBox="0 0 48 48" fill="none" xmlns="http://www.w3.org/2000/svg">
<g clip-path="url(#clip0_20521_45870)">
<path fill-rule="evenodd" clip-rule="evenodd" d="M16.0555 19.0555C16.5712 18.5397 17.2707 18.25 18 18.25H19C19.4142 18.25 19.75 18.5858 19.75 19C19.75 19.4142 19.4142 19.75 19 19.75H18C17.6685 19.75 17.3505 19.8817 17.1161 20.1161C16.8817 20.3505 16.75 20.6685 16.75 21V30C16.75 30.3315 16.8817 30.6495 17.1161 30.8839C17.3505 31.1183 17.6685 31.25 18 31.25H27C27.3315 31.25 27.6495 31.1183 27.8839 30.8839C28.1183 30.6495 28.25 30.3315 28.25 30V29C28.25 28.5858 28.5858 28.25 29 28.25C29.4142 28.25 29.75 28.5858 29.75 29V30C29.75 30.7293 29.4603 31.4288 28.9445 31.9445C28.4288 32.4603 27.7293 32.75 27 32.75H18C17.2707 32.75 16.5712 32.4603 16.0555 31.9445C15.5397 31.4288 15.25 30.7293 15.25 30V21C15.25 20.2707 15.5397 19.5712 16.0555 19.0555Z" fill="black"/>
<path fill-rule="evenodd" clip-rule="evenodd" d="M28.8852 15.0843C29.4196 14.5501 30.1443 14.25 30.9 14.25C31.6559 14.25 32.3808 14.5503 32.9153 15.0848C33.4498 15.6193 33.7501 16.3442 33.7501 17.1001C33.7501 17.8556 33.4502 18.5801 32.9163 19.1145C32.916 19.1148 32.9156 19.1151 32.9153 19.1154L31.6335 20.4018C31.6045 20.4474 31.5701 20.4906 31.5303 20.5304C31.4912 20.5696 31.4488 20.6035 31.404 20.6322L24.5313 27.5295C24.3905 27.6707 24.1994 27.7501 24 27.7501H21C20.5858 27.7501 20.25 27.4143 20.25 27.0001V24.0001C20.25 23.8007 20.3294 23.6096 20.4706 23.4688L27.3679 16.5961C27.3966 16.5513 27.4305 16.5089 27.4697 16.4698C27.5095 16.43 27.5527 16.3956 27.5983 16.3666L28.8852 15.0843C28.8853 15.0841 28.885 15.0844 28.8852 15.0843ZM28.0116 18.0723L21.75 24.3116V26.2501H23.6886L29.9278 19.9886L28.0116 18.0723ZM30.9866 18.926L29.0741 17.0136L29.9453 16.1454C30.1985 15.8922 30.5419 15.75 30.9 15.75C31.2581 15.75 31.6015 15.8922 31.8547 16.1454C32.1079 16.3986 32.2501 16.742 32.2501 17.1001C32.2501 17.4582 32.1079 17.8016 31.8547 18.0548L31.8537 18.0557L30.9866 18.926Z" fill="black"/>
</g>
<defs>
<clipPath id="clip0_20521_45870">
<rect x="4" y="4" width="40" height="40" rx="20" fill="white"/>
</clipPath>
</defs>
</svg>
