<svg width="18" height="18" viewBox="0 0 18 18" fill="none" xmlns="http://www.w3.org/2000/svg">
    <path d="M13.5 6.75V5.4C13.5 4.55992 13.5 4.13988 13.3365 3.81901C13.1927 3.53677 12.9632 3.3073 12.681 3.16349C12.3601 3 11.9401 3 11.1 3H5.4C4.55992 3 4.13988 3 3.81901 3.16349C3.53677 3.3073 3.3073 3.53677 3.16349 3.81901C3 4.13988 3 4.55992 3 5.4V13.5L6 12M15 15L13.3546 13.9031C13.1299 13.7533 13.0175 13.6783 12.896 13.6253C12.7881 13.5782 12.675 13.5439 12.5591 13.5233C12.4285 13.5 12.2934 13.5 12.0233 13.5H8.4C7.55992 13.5 7.13988 13.5 6.81901 13.3365C6.53677 13.1927 6.3073 12.9632 6.16349 12.681C6 12.3601 6 11.9401 6 11.1V9.15C6 8.30992 6 7.88988 6.16349 7.56901C6.3073 7.28677 6.53677 7.0573 6.81901 6.91349C7.13988 6.75 7.55992 6.75 8.4 6.75H12.6C13.4401 6.75 13.8601 6.75 14.181 6.91349C14.4632 7.0573 14.6927 7.28677 14.8365 7.56901C15 7.88988 15 8.30992 15 9.15V15Z" stroke="#00AEEF" stroke-width="2" stroke-linecap="round" stroke-linejoin="round"/>
</svg>
