<svg width="8" height="16" viewBox="0 0 8 16" fill="none" xmlns="http://www.w3.org/2000/svg">
<path d="M6.99935 4.00002V11.6667C6.99935 13.14 5.80602 14.3334 4.33268 14.3334C2.85935 14.3334 1.66602 13.14 1.66602 11.6667V3.33335C1.66602 2.41335 2.41268 1.66669 3.33268 1.66669C4.25268 1.66669 4.99935 2.41335 4.99935 3.33335V10.3334C4.99935 10.7 4.69935 11 4.33268 11C3.96602 11 3.66602 10.7 3.66602 10.3334V4.00002H2.66602V10.3334C2.66602 11.2534 3.41268 12 4.33268 12C5.25268 12 5.99935 11.2534 5.99935 10.3334V3.33335C5.99935 1.86002 4.80602 0.666687 3.33268 0.666687C1.85935 0.666687 0.666016 1.86002 0.666016 3.33335V11.6667C0.666016 13.6934 2.30602 15.3334 4.33268 15.3334C6.35935 15.3334 7.99935 13.6934 7.99935 11.6667V4.00002H6.99935Z" fill="#D3D4D8"/>
</svg>
