<svg width="48" height="48" viewBox="0 0 48 48" fill="none" xmlns="http://www.w3.org/2000/svg">
<rect width="48" height="48" rx="8" fill="#5D5FEF"/>
<g clip-path="url(#clip0_10597_147206)">
<path d="M18.9998 30C17.8998 30 17.0098 30.9 17.0098 32C17.0098 33.1 17.8998 34 18.9998 34C20.0998 34 20.9998 33.1 20.9998 32C20.9998 30.9 20.0998 30 18.9998 30Z" fill="white"/>
<path d="M28.9998 30C27.8998 30 27.0098 30.9 27.0098 32C27.0098 33.1 27.8998 34 28.9998 34C30.0998 34 30.9998 33.1 30.9998 32C30.9998 30.9 30.0998 30 28.9998 30Z" fill="white"/>
<path d="M27.55 25C28.3 25 28.96 24.59 29.3 23.97L32.88 17.48C33.25 16.82 32.77 16 32.01 16H17.21L16.27 14H13V16H15L18.6 23.59L17.25 26.03C16.52 27.37 17.48 29 19 29H31V27H19L20.1 25H27.55ZM18.16 18H30.31L27.55 23H20.53L18.16 18Z" fill="white"/>
</g>
<defs>
<clipPath id="clip0_10597_147206">
<rect x="4" y="4" width="40" height="40" rx="20" fill="white"/>
</clipPath>
</defs>
</svg>
