<svg width="48" height="48" viewBox="0 0 48 48" fill="none" xmlns="http://www.w3.org/2000/svg">
<rect width="48" height="48" rx="8" fill="#249FEF"/>
<g clip-path="url(#clip0_12911_195547)">
<path d="M15 20L20.4499 23.6333C21.7329 24.4886 22.3745 24.9163 23.0678 25.0825C23.6806 25.2293 24.3194 25.2293 24.9322 25.0825C25.6255 24.9163 26.2671 24.4886 27.5501 23.6333L33 20M18.2 31H29.8C30.9201 31 31.4802 31 31.908 30.782C32.2843 30.5903 32.5903 30.2843 32.782 29.908C33 29.4802 33 28.9201 33 27.8V20.2C33 19.0799 33 18.5198 32.782 18.092C32.5903 17.7157 32.2843 17.4097 31.908 17.218C31.4802 17 30.9201 17 29.8 17H18.2C17.0799 17 16.5198 17 16.092 17.218C15.7157 17.4097 15.4097 17.7157 15.218 18.092C15 18.5198 15 19.0799 15 20.2V27.8C15 28.9201 15 29.4802 15.218 29.908C15.4097 30.2843 15.7157 30.5903 16.092 30.782C16.5198 31 17.0799 31 18.2 31Z" stroke="white" stroke-width="2" stroke-linecap="round" stroke-linejoin="round"/>
</g>
<defs>
<clipPath id="clip0_12911_195547">
<rect x="4" y="4" width="40" height="40" rx="20" fill="white"/>
</clipPath>
</defs>
</svg>
