<svg width="19" height="18" viewBox="0 0 19 18" fill="none" xmlns="http://www.w3.org/2000/svg">
    <path d="M7.25195 12.75H4.70526C3.76144 12.75 3.28953 12.75 3.19024 12.6767C3.07869 12.5944 3.05143 12.5458 3.03935 12.4077C3.0286 12.2847 3.31784 11.8115 3.89631 10.8649C4.49357 9.88765 5.00072 8.46466 5.00072 6.45C5.00072 5.33609 5.47482 4.2678 6.31874 3.48015C7.16265 2.6925 8.30724 2.25 9.50072 2.25C10.6942 2.25 11.8388 2.6925 12.6827 3.48015C13.5266 4.2678 14.0007 5.33609 14.0007 6.45C14.0007 8.46466 14.5079 9.88766 15.1051 10.8649C15.6836 11.8115 15.9728 12.2847 15.9621 12.4077C15.95 12.5458 15.9227 12.5944 15.8112 12.6767C15.7119 12.75 15.24 12.75 14.2962 12.75H11.7507M7.25195 12.75L7.25072 13.5C7.25072 14.7426 8.25808 15.75 9.50072 15.75C10.7434 15.75 11.7507 14.7426 11.7507 13.5V12.75M7.25195 12.75H11.7507" stroke="#00AEEF" stroke-width="2" stroke-linecap="round" stroke-linejoin="round"/>
</svg>
