<svg width="93" height="96" viewBox="0 0 93 96" fill="none" xmlns="http://www.w3.org/2000/svg">
<circle cx="45" cy="45" r="45" fill="white"/>
<path d="M90 44.8732C90 58.6901 83.653 71.1127 73.7518 79.3521C73.4979 75.676 72.3554 72.507 70.4513 69.9718C68.1664 67.0563 65.5007 64.9014 62.4542 63.3803C59.4076 61.8591 55.3456 60.2113 50.3949 58.5634C45.4443 56.9155 41.763 55.5211 39.4781 54.1268C37.1932 52.7324 36.0508 50.831 36.0508 48.4225C36.0508 46.1408 36.6855 44.493 38.0818 43.2253C39.4781 42.0845 41.2553 41.4507 43.5402 41.4507C46.079 41.4507 48.237 42.2113 50.0141 43.6056C51.6643 45 52.5529 46.9014 52.6798 49.4366H72.8632C72.4824 42.2113 69.6897 36.6338 64.6121 32.5775C59.4076 28.5211 52.6798 26.493 44.3018 26.493C35.9238 26.6197 29.1961 28.5211 24.1185 32.5775C18.914 36.6338 16.3752 42.2113 16.3752 49.3099C16.3752 54.1268 17.5176 57.9296 19.8025 60.9718C22.0874 63.8873 24.7532 66.169 27.7997 67.6901C30.9732 69.2113 34.9083 70.7324 39.859 72.2535C43.2863 73.2676 45.952 74.1549 47.7292 75.0423C49.6333 75.8028 51.1566 76.8169 52.426 78.0845C53.6953 79.3521 54.33 80.8732 54.33 82.7747C54.33 85.0563 53.5684 86.831 51.9182 88.0986C50.5219 89.1127 48.8716 89.7465 46.7137 90C46.2059 90 45.6982 90 45.0635 90C45.0635 90 45.0635 90 44.9365 90C35.0353 90 25.7687 86.831 18.4062 81.2535C7.23554 73.0141 0 59.831 0 44.8732C0 20.1549 20.1834 0 44.9365 0C69.6897 0 90 20.1549 90 44.8732Z" fill="#00AEEF"/>
<path d="M9.97991 71.8004C18.9188 75.1949 24.623 82.5926 26.3577 85.8671C19.3934 90.9717 6.35512 99.6263 9.91584 93.4075C13.4766 87.1887 11.4422 76.4116 9.97991 71.8004Z" fill="#00AEEF"/>
</svg>
