<svg width="48" height="48" viewBox="0 0 48 48" fill="none" xmlns="http://www.w3.org/2000/svg">
<rect width="48" height="48" rx="8" fill="white"/>
<g clip-path="url(#clip0_12911_196988)">
<path d="M15 16.6C15 16.0399 15 15.7599 15.109 15.546C15.2049 15.3578 15.3578 15.2049 15.546 15.109C15.7599 15 16.0399 15 16.6 15H31.4C31.9601 15 32.2401 15 32.454 15.109C32.6422 15.2049 32.7951 15.3578 32.891 15.546C33 15.7599 33 16.0399 33 16.6V18.3373C33 18.5818 33 18.7041 32.9724 18.8192C32.9479 18.9213 32.9075 19.0188 32.8526 19.1083C32.7908 19.2092 32.7043 19.2957 32.5314 19.4686L26.4686 25.5314C26.2957 25.7043 26.2092 25.7908 26.1474 25.8917C26.0925 25.9812 26.0521 26.0787 26.0276 26.1808C26 26.2959 26 26.4182 26 26.6627V29L22 33V26.6627C22 26.4182 22 26.2959 21.9724 26.1808C21.9479 26.0787 21.9075 25.9812 21.8526 25.8917C21.7908 25.7908 21.7043 25.7043 21.5314 25.5314L15.4686 19.4686C15.2957 19.2957 15.2092 19.2092 15.1474 19.1083C15.0925 19.0188 15.0521 18.9213 15.0276 18.8192C15 18.7041 15 18.5818 15 18.3373V16.6Z" stroke="#00AEEF" stroke-width="2" stroke-linecap="round" stroke-linejoin="round"/>
</g>
<defs>
<clipPath id="clip0_12911_196988">
<rect x="4" y="4" width="40" height="40" rx="20" fill="white"/>
</clipPath>
</defs>
</svg>
