<svg width="24" height="24" viewBox="0 0 24 24" fill="none" xmlns="http://www.w3.org/2000/svg">
<path d="M10.3599 5.75455L8.78288 4.46558C8.41019 4.16382 7.96297 4 7.50006 4H3.1769C2.52568 4 2 4.57767 2 5.29328V20.36H17.8529C18.4492 20.36 18.9278 19.8298 18.9278 19.1788V7.51341C18.9278 6.7978 18.4021 6.22013 17.7509 6.22013H11.6467C11.1838 6.22013 10.7326 6.05632 10.3599 5.75455Z" fill="#F7AE30"/>
<path d="M4.97517 7.33594H16.7442C17.0698 7.33594 17.3326 7.62477 17.3326 7.98258V16.6045C17.3326 16.9623 17.0698 17.2511 16.7442 17.2511H4.97517C4.64956 17.2511 4.38672 16.9623 4.38672 16.6045V7.98258C4.38672 7.62477 4.64956 7.33594 4.97517 7.33594Z" fill="#FFEAC5"/>
<path d="M4.19001 8.19727H15.959C16.2846 8.19727 16.5475 8.4861 16.5475 8.84391V17.4658C16.5475 17.8236 16.2846 18.1124 15.959 18.1124H4.19001C3.8644 18.1124 3.60156 17.8236 3.60156 17.4658V8.84391C3.60156 8.4861 3.8644 8.19727 4.19001 8.19727Z" fill="white"/>
<path d="M5.29925 10.6301L2 20.3556H18.1157C18.6061 20.3556 19.0455 20.0193 19.2181 19.5149L21.925 11.5311C22.2113 10.6861 21.6425 9.78516 20.8226 9.78516H6.40161C5.91124 9.78947 5.47186 10.1214 5.29925 10.6301Z" fill="#FFCA4F"/>
</svg>
