<svg width="18" height="18" viewBox="0 0 18 18" fill="none" xmlns="http://www.w3.org/2000/svg">
<path d="M10.6985 11.9532L9.4105 10.676C8.81849 10.0889 8.52248 9.79535 8.18169 9.68525C7.8819 9.5884 7.55921 9.5884 7.25942 9.68525C6.91863 9.79535 6.62263 10.0889 6.03062 10.676L3.03145 13.6966M10.6985 11.9532L10.9545 11.6993C11.559 11.0999 11.8612 10.8002 12.2079 10.6908C12.5129 10.5946 12.8406 10.5984 13.1433 10.7016C13.4874 10.8189 13.7827 11.1255 14.3732 11.7386L15 12.3751M10.6985 11.9532L13.665 14.9721M13.665 14.9721C13.4027 15 13.066 15 12.6 15H5.4C4.55992 15 4.13988 15 3.81901 14.8365C3.53677 14.6927 3.3073 14.4632 3.16349 14.181C3.09438 14.0453 3.05448 13.892 3.03145 13.6966M13.665 14.9721C13.8756 14.9497 14.0381 14.9093 14.181 14.8365C14.4632 14.6927 14.6927 14.4632 14.8365 14.181C15 13.8601 15 13.4401 15 12.6V9.75M8.25 3H5.4C4.55992 3 4.13988 3 3.81901 3.16349C3.53677 3.3073 3.3073 3.53677 3.16349 3.81901C3 4.13988 3 4.55992 3 5.4V12.6C3 13.0849 3 13.4299 3.03145 13.6966M13.5 6.75V4.5M13.5 4.5V2.25M13.5 4.5H15.75M13.5 4.5H11.25" stroke="#00AEEF" stroke-width="2" stroke-linecap="round" stroke-linejoin="round"/>
</svg>
