<svg width="20" height="16" viewBox="0 0 20 16" fill="none" xmlns="http://www.w3.org/2000/svg">
<path d="M1 4.2C1 3.07989 1 2.51984 1.21799 2.09202C1.40973 1.71569 1.71569 1.40973 2.09202 1.21799C2.51984 1 3.0799 1 4.2 1H7.67452C8.1637 1 8.40829 1 8.63846 1.05526C8.84254 1.10425 9.03763 1.18506 9.21657 1.29472C9.4184 1.4184 9.59136 1.59135 9.93726 1.93726L10.0627 2.06274C10.4086 2.40865 10.5816 2.5816 10.7834 2.70528C10.9624 2.81494 11.1575 2.89575 11.3615 2.94474C11.5917 3 11.8363 3 12.3255 3H15.8C16.9201 3 17.4802 3 17.908 3.21799C18.2843 3.40973 18.5903 3.71569 18.782 4.09202C19 4.51984 19 5.0799 19 6.2V11.8C19 12.9201 19 13.4802 18.782 13.908C18.5903 14.2843 18.2843 14.5903 17.908 14.782C17.4802 15 16.9201 15 15.8 15H4.2C3.07989 15 2.51984 15 2.09202 14.782C1.71569 14.5903 1.40973 14.2843 1.21799 13.908C1 13.4802 1 12.9201 1 11.8V4.2Z" stroke="#A0A5A9" stroke-width="2" stroke-linecap="round" stroke-linejoin="round"/>
</svg>
