<svg width="48" height="48" viewBox="0 0 48 48" fill="none" xmlns="http://www.w3.org/2000/svg">
<rect width="48" height="48" rx="16" fill="#FECA39"/>
<path d="M15 20.2C15 19.0799 15 18.5198 15.218 18.092C15.4097 17.7157 15.7157 17.4097 16.092 17.218C16.5198 17 17.0799 17 18.2 17H21.6745C22.1637 17 22.4083 17 22.6385 17.0553C22.8425 17.1043 23.0376 17.1851 23.2166 17.2947C23.4184 17.4184 23.5914 17.5914 23.9373 17.9373L24.0627 18.0627C24.4086 18.4086 24.5816 18.5816 24.7834 18.7053C24.9624 18.8149 25.1575 18.8957 25.3615 18.9447C25.5917 19 25.8363 19 26.3255 19H29.8C30.9201 19 31.4802 19 31.908 19.218C32.2843 19.4097 32.5903 19.7157 32.782 20.092C33 20.5198 33 21.0799 33 22.2V27.8C33 28.9201 33 29.4802 32.782 29.908C32.5903 30.2843 32.2843 30.5903 31.908 30.782C31.4802 31 30.9201 31 29.8 31H18.2C17.0799 31 16.5198 31 16.092 30.782C15.7157 30.5903 15.4097 30.2843 15.218 29.908C15 29.4802 15 28.9201 15 27.8V20.2Z" stroke="white" stroke-width="2" stroke-linecap="round" stroke-linejoin="round"/>
</svg>
