<svg width="48" height="48" viewBox="0 0 48 48" fill="none" xmlns="http://www.w3.org/2000/svg">
<rect width="48" height="48" rx="16" fill="#00D18A"/>
<path d="M31.4003 30C31.7837 29.2499 32 28.4002 32 27.5C32 24.4624 29.5376 22 26.5 22C23.4624 22 21 24.4624 21 27.5C21 30.5376 23.4624 33 26.5 33L33 33C33 33 32 32 31.4143 30.0292M30.85 24C30.9484 23.5153 31 23.0137 31 22.5C31 18.3579 27.6421 15 23.5 15C19.3579 15 16 18.3579 16 22.5C16 23.3766 16.1504 24.2181 16.4268 25C17.501 28.0117 15 30 15 30H21.5" stroke="white" stroke-width="2" stroke-linecap="round" stroke-linejoin="round"/>
</svg>
