<svg width="48" height="48" viewBox="0 0 48 48" fill="none" xmlns="http://www.w3.org/2000/svg">
<rect width="48" height="48" rx="16" fill="#C586FF"/>
<path d="M15 20L17.7219 22.2682C17.9016 22.418 18.1281 22.5 18.3621 22.5H29.6379C29.8719 22.5 30.0984 22.418 30.2781 22.2682L33 20M18.5 26H18.51M29.5 26H29.51M20.1606 16.5H27.8394C28.5571 16.5 29.2198 16.8846 29.5758 17.5077L32.473 22.5777C32.8183 23.1821 33 23.8661 33 24.5623V30.5C33 31.0523 32.5523 31.5 32 31.5H31C30.4477 31.5 30 31.0523 30 30.5V29.5H18V30.5C18 31.0523 17.5523 31.5 17 31.5H16C15.4477 31.5 15 31.0523 15 30.5V24.5623C15 23.8661 15.1817 23.1821 15.527 22.5777L18.4242 17.5077C18.7802 16.8846 19.4429 16.5 20.1606 16.5ZM19 26C19 26.2761 18.7761 26.5 18.5 26.5C18.2239 26.5 18 26.2761 18 26C18 25.7239 18.2239 25.5 18.5 25.5C18.7761 25.5 19 25.7239 19 26ZM30 26C30 26.2761 29.7761 26.5 29.5 26.5C29.2239 26.5 29 26.2761 29 26C29 25.7239 29.2239 25.5 29.5 25.5C29.7761 25.5 30 25.7239 30 26Z" stroke="white" stroke-width="2" stroke-linecap="round" stroke-linejoin="round"/>
</svg>
