<svg width="19" height="18" viewBox="0 0 19 18" fill="none" xmlns="http://www.w3.org/2000/svg">
    <path d="M12.1248 4.12453L14.2461 6.24585M2.75 15.7493L2.78559 15.5002C2.91152 14.6187 2.97449 14.1779 3.11772 13.7664C3.24481 13.4013 3.41843 13.054 3.63429 12.7333C3.87756 12.3718 4.19239 12.057 4.82206 11.4273L13.5581 2.69129C14.1438 2.10551 15.0936 2.10551 15.6794 2.69129C16.2652 3.27708 16.2652 4.22683 15.6794 4.81261L6.78308 13.7089C6.21185 14.2801 5.92623 14.5658 5.6009 14.7929C5.31213 14.9945 5.00069 15.1615 4.67298 15.2905C4.30378 15.4358 3.90782 15.5157 3.11595 15.6755L2.75 15.7493Z" stroke="#00AEEF" stroke-width="2" stroke-linecap="round" stroke-linejoin="round"/>
</svg>
