<svg width="19" height="18" viewBox="0 0 19 18" fill="none" xmlns="http://www.w3.org/2000/svg">
    <path d="M3.5 4.5H15.5M12.5 4.5L12.297 3.89105C12.1003 3.30094 12.002 3.00588 11.8195 2.78774C11.6584 2.5951 11.4516 2.44599 11.2179 2.35408C10.9532 2.25 10.6422 2.25 10.0202 2.25H8.97982C8.35779 2.25 8.04677 2.25 7.78213 2.35408C7.54844 2.44599 7.34156 2.5951 7.18047 2.78774C6.99804 3.00588 6.89969 3.30094 6.70298 3.89105L6.5 4.5M14 4.5V12.15C14 13.4101 14 14.0402 13.7548 14.5215C13.539 14.9448 13.1948 15.289 12.7715 15.5048C12.2902 15.75 11.6601 15.75 10.4 15.75H8.6C7.33988 15.75 6.70982 15.75 6.22852 15.5048C5.80516 15.289 5.46095 14.9448 5.24524 14.5215C5 14.0402 5 13.4101 5 12.15V4.5M11 7.5V12.75M8 7.5V12.75" stroke="#EB5454" stroke-width="2" stroke-linecap="round" stroke-linejoin="round"/>
</svg>
