<svg width="24" height="24" viewBox="0 0 24 24" fill="none" xmlns="http://www.w3.org/2000/svg">
<path d="M19 4.00001H14.815C14.405 2.84 13.305 2 12 2C10.695 2 9.59498 2.84 9.18501 4.00001H5.00001C3.89503 4.00001 3 4.895 3 6.00003V20C3 21.105 3.89498 22 5.00001 22H19C20.105 22 21 21.105 21 20V5.99998C21 4.895 20.105 4.00001 19 4.00001ZM12 4.00001C12.55 4.00001 13 4.445 13 5C13 5.555 12.55 5.99998 12 5.99998C11.45 5.99998 11 5.555 11 5C11 4.445 11.45 4.00001 12 4.00001ZM10 18L6 14L7.41501 12.585L10 15.17L16.585 8.58499L18 10L10 18Z" fill="#249FEF"/>
</svg>
