<svg width="24" height="24" viewBox="0 0 24 24" fill="none" xmlns="http://www.w3.org/2000/svg">
<path d="M14 2H5.99997C4.9 2 4.00998 2.9 4.00998 4.00001L4 20C4 21.1 4.89002 22 5.98998 22H18C19.1 22 20 21.1 20 20V8L14 2ZM12 18C9.94998 18 8.19498 16.765 7.41995 15H9.12995C9.76496 15.905 10.8099 16.5 11.9949 16.5C13.9299 16.5 15.495 14.935 15.495 13C15.495 11.065 13.9299 9.49995 11.9949 9.49995C10.6399 9.49995 9.47996 10.2749 8.89993 11.4049L10.4999 13H6.49998V8.99998L7.79997 10.3C8.68998 8.92001 10.235 8 12 8C14.76 8 17 10.24 17 13C17 15.76 14.76 18 12 18Z" fill="#00D18A"/>
</svg>
