<svg width="20" height="18" viewBox="0 0 20 18" fill="none" xmlns="http://www.w3.org/2000/svg">
<path d="M18 6L2 6M14 6V17M15.8 17H4.2C3.07989 17 2.51984 17 2.09202 16.782C1.71569 16.5903 1.40973 16.2843 1.21799 15.908C1 15.4802 1 14.9201 1 13.8V4.2C1 3.0799 1 2.51984 1.21799 2.09202C1.40973 1.71569 1.71569 1.40973 2.09202 1.21799C2.51984 1 3.07989 1 4.2 1H15.8C16.9201 1 17.4802 1 17.908 1.21799C18.2843 1.40973 18.5903 1.71569 18.782 2.09202C19 2.51984 19 3.07989 19 4.2V13.8C19 14.9201 19 15.4802 18.782 15.908C18.5903 16.2843 18.2843 16.5903 17.908 16.782C17.4802 17 16.9201 17 15.8 17Z" stroke="#888888" stroke-width="2" stroke-linecap="round" stroke-linejoin="round"/>
</svg>
