<svg width="19" height="18" viewBox="0 0 19 18" fill="none" xmlns="http://www.w3.org/2000/svg">
    <path d="M11.7499 11.441C10.8996 10.8479 9.86537 10.5 8.74994 10.5C6.053 10.5 3.83102 12.5336 3.53374 15.151C3.5127 15.3362 3.50218 15.4288 3.53916 15.5183C3.56942 15.5915 3.63492 15.6648 3.70422 15.7032C3.78892 15.75 3.89259 15.75 4.09994 15.75H7.95849M10.9999 14.4643L12.3499 15.75L15.4999 12.75M11.7499 5.25C11.7499 6.90685 10.4068 8.25 8.74994 8.25C7.09308 8.25 5.74994 6.90685 5.74994 5.25C5.74994 3.59315 7.09308 2.25 8.74994 2.25C10.4068 2.25 11.7499 3.59315 11.7499 5.25Z" stroke="white" stroke-width="2" stroke-linecap="round" stroke-linejoin="round"/>
</svg>
