<svg width="24" height="24" viewBox="0 0 24 24" fill="none" xmlns="http://www.w3.org/2000/svg">
<mask id="mask0_20411_26196" style="mask-type:luminance" maskUnits="userSpaceOnUse" x="2" y="2" width="20" height="20">
<path d="M22 2H2V22H22V2Z" fill="white"/>
</mask>
<g mask="url(#mask0_20411_26196)">
<mask id="mask1_20411_26196" style="mask-type:luminance" maskUnits="userSpaceOnUse" x="2" y="2" width="20" height="20">
<path d="M2 2H22V22H2V2Z" fill="white"/>
</mask>
<g mask="url(#mask1_20411_26196)">
<path d="M6.14062 11.3311C6.14062 9.56203 7.57473 8.12793 9.34375 8.12793C11.1128 8.12793 12.5469 9.56203 12.5469 11.3311C12.5469 13.1001 11.1128 14.5342 9.34375 14.5342C7.57473 14.5342 6.14062 13.1001 6.14062 11.3311Z" stroke="#8B90A0" stroke-width="2" stroke-miterlimit="10" stroke-linecap="round" stroke-linejoin="round"/>
<path d="M11.141 21.2188H4.34409C3.28437 21.2188 2.53199 20.1861 2.85648 19.1773C3.71847 16.4972 6.36034 14.5578 9.32699 14.5578C10.7422 14.5578 12.0543 14.9991 13.1332 15.7516" stroke="#8B90A0" stroke-width="2" stroke-miterlimit="10" stroke-linecap="round" stroke-linejoin="round"/>
<path d="M14.2266 5.98438C14.2266 4.21535 15.6607 2.78125 17.4297 2.78125C19.1987 2.78125 20.6328 4.21535 20.6328 5.98438C20.6328 7.7534 19.1987 9.1875 17.4297 9.1875C15.6607 9.1875 14.2266 7.7534 14.2266 5.98438Z" stroke="#8B90A0" stroke-width="2" stroke-miterlimit="10" stroke-linecap="round" stroke-linejoin="round"/>
<path d="M12.5713 11.2969C13.7855 10.0125 15.5054 9.21109 17.4124 9.21109C18.8276 9.21109 20.1396 9.65242 21.2186 10.405" stroke="#8B90A0" stroke-width="2" stroke-miterlimit="10" stroke-linecap="round" stroke-linejoin="round"/>
<path d="M18.2891 21.2188V15.3594" stroke="#8B90A0" stroke-width="2" stroke-miterlimit="10" stroke-linecap="round" stroke-linejoin="round"/>
<path d="M21.2188 18.2891H15.3594" stroke="#8B90A0" stroke-width="2" stroke-miterlimit="10" stroke-linecap="round" stroke-linejoin="round"/>
</g>
</g>
</svg>
