<svg width="18" height="18" viewBox="0 0 18 18" fill="none" xmlns="http://www.w3.org/2000/svg">
    <path d="M11.2501 11.441C10.3997 10.8479 9.3655 10.5 8.25006 10.5C5.55312 10.5 3.33114 12.5336 3.03386 15.151C3.01282 15.3362 3.0023 15.4288 3.03928 15.5183C3.06954 15.5915 3.13504 15.6648 3.20434 15.7032C3.28904 15.75 3.39271 15.75 3.60006 15.75H7.45861M10.5001 14.4643L11.8501 15.75L15.0001 12.75M11.2501 5.25C11.2501 6.90685 9.90691 8.25 8.25006 8.25C6.59321 8.25 5.25006 6.90685 5.25006 5.25C5.25006 3.59315 6.59321 2.25 8.25006 2.25C9.90691 2.25 11.2501 3.59315 11.2501 5.25Z" stroke="#5D5FEF" stroke-width="2" stroke-linecap="round" stroke-linejoin="round"/>
</svg>
