<svg width="57" height="57" viewBox="0 0 57 57" fill="none" xmlns="http://www.w3.org/2000/svg">
<path d="M23.3901 52.4606L24.2627 54.0587C24.2627 54.0935 24.2976 54.0935 24.2976 54.1282L16.3395 49.6466L6.39181 44.0532C4.40228 42.9414 3.52968 40.6485 4.15795 38.5987C4.26266 38.2513 4.40228 37.9386 4.5768 37.5912L4.71642 37.3133C4.71642 37.3133 4.71642 37.3133 4.71642 37.2786L5.06546 36.6532C6.14748 34.7424 8.59077 34.0476 10.5454 35.1246L11.1737 35.472H11.2086L14.315 37.2091L21.0864 41.0306L28.4512 45.1649L24.9957 47.0409C23.0411 48.0832 22.343 50.5151 23.3901 52.4606Z" fill="#1D88FE"/>
<path d="M30.79 55.0663C30.5108 55.2748 30.1618 55.4485 29.8477 55.5874L30.79 55.0663Z" fill="#1D88FE"/>
<path d="M51.3139 43.81C51.1044 44.0185 50.8601 44.1922 50.5809 44.3311L30.7902 55.0663L29.8478 55.5874L29.7082 55.6569C27.7885 56.6991 25.415 56.0043 24.2981 54.1283C24.2981 54.0935 24.2632 54.0935 24.2632 54.0588L23.3906 52.4607C22.3435 50.5151 23.0415 48.0832 24.9962 47.041L28.4517 45.1649L42.8671 37.3481V40.5443C42.8671 42.7678 44.6821 44.5396 46.881 44.5396H49.0102C49.8479 44.5396 50.6507 44.2617 51.3139 43.81Z" fill="#4A3AFF"/>
<path d="M53.0233 16.7463V40.5442C53.0233 41.8992 52.3601 43.0804 51.313 43.81C50.6498 44.2616 49.8819 44.5395 49.0093 44.5395H46.8802C44.6812 44.5395 42.8662 42.7677 42.8662 40.5442V19.4561L45.9727 21.2627C47.8924 22.3744 50.3357 21.7491 51.4526 19.8383L52.395 18.2749C52.8139 17.5106 52.9884 16.7115 52.9186 15.9125C52.9884 16.1557 53.0233 16.4336 53.0233 16.7463Z" fill="#F24C2E"/>
<path d="M52.3956 18.275L51.4532 19.8384C50.3363 21.7492 47.893 22.3745 45.9733 21.2628L42.8668 19.4562L28.4863 11.0488L31.6975 9.10325C33.5823 7.95678 34.1757 5.49013 33.0239 3.61408L32.0814 2.05071C31.9767 1.87701 31.872 1.7033 31.7324 1.56433L50.9646 12.8206C52.1164 13.4807 52.8145 14.6619 52.9192 15.8779C52.989 16.6769 52.8145 17.5107 52.3956 18.275Z" fill="#FF9500"/>
<path d="M31.6972 9.10309L28.4861 11.0486L14.315 19.6298V16.3641C14.315 14.1406 12.5 12.3688 10.301 12.3688H8.17187C7.78793 12.3688 7.43888 12.4035 7.08984 12.5078L26.5663 0.73037C28.2766 -0.311877 30.4756 0.0702802 31.7321 1.56417C31.8717 1.70313 31.9765 1.87684 32.0812 2.05055L33.0236 3.61392C34.1754 5.48996 33.582 7.95662 31.6972 9.10309Z" fill="#FADA00"/>
<path d="M14.3153 16.3642V37.2091L11.2088 35.472H11.1739L10.5457 35.1246C8.59102 34.0476 6.14774 34.7425 5.06571 36.6533L4.71667 37.2786C4.71667 37.3133 4.71667 37.3133 4.71667 37.3133L4.57705 37.5913C4.40253 37.904 4.26292 38.2514 4.1582 38.5988V16.3642C4.1582 14.5576 5.41475 12.9942 7.09015 12.5079C7.43919 12.4036 7.78823 12.3689 8.17217 12.3689H10.3013C12.5003 12.3689 14.3153 14.1407 14.3153 16.3642Z" fill="#70B61C"/>
</svg>
