<svg width="793" height="162" viewBox="0 0 793 162" fill="none" xmlns="http://www.w3.org/2000/svg">
<path d="M247.115 143.198L215.616 103.015L184.118 143.198H165.274L206.102 91.0553L164.812 38.1469H183.841L215.709 78.9045L247.577 38.1469H266.605L225.223 91.0553L266.144 143.198H247.115Z" fill="#1D88FE"/>
<path d="M290.992 143.103H276.027V37.8598L290.992 53.3592V143.103Z" fill="#1D88FE"/>
<path d="M315.562 143.198H300.598V53.4549L315.562 37.9555V143.198Z" fill="#1D88FE"/>
<path d="M308.726 30.9713L304.2 35.6594L295.702 26.953L287.389 35.6594L282.862 30.9713L295.702 17.5768L308.726 30.9713Z" fill="#1D88FE"/>
<path d="M315.007 24.274L311.59 27.814L295.794 11.4536L279.998 27.814L276.581 24.274C276.026 23.7 276.026 22.7432 276.581 22.1692L280.737 17.8638L281.569 17.0027L287.942 10.4011L294.778 3.32116C295.332 2.74711 296.256 2.74711 296.81 3.32116L315.007 22.1692C315.562 22.7432 315.562 23.7 315.007 24.274Z" fill="#1D88FE"/>
<path d="M295.733 32.7494L290.247 38.4322L295.733 44.115L301.22 38.4322L295.733 32.7494Z" fill="#1D88FE"/>
<path d="M435.767 91.7251C435.767 102.823 433.827 112.295 429.855 120.236C425.883 128.177 420.618 134.301 413.783 138.606C406.947 142.911 399.28 145.016 390.597 145.016C381.914 145.016 374.155 142.911 367.412 138.606C360.577 134.301 355.219 128.177 351.34 120.236C347.46 112.295 345.428 102.728 345.428 91.7251C345.428 80.6268 347.368 71.155 351.34 63.2139C355.219 55.2729 360.577 49.1497 367.412 44.8443C374.248 40.5389 381.914 38.4341 390.597 38.4341C399.28 38.4341 406.947 40.5389 413.783 44.8443C420.618 49.1497 425.976 55.2729 429.855 63.2139C433.735 71.155 435.767 80.6268 435.767 91.7251ZM420.803 91.7251C420.803 83.3057 419.51 76.1301 416.831 70.3896C414.245 64.5534 410.642 60.248 406.116 57.1864C401.59 54.2205 396.417 52.6897 390.69 52.6897C384.963 52.6897 379.79 54.2205 375.264 57.1864C370.738 60.1523 367.135 64.5534 364.549 70.3896C361.962 76.2257 360.577 83.3057 360.577 91.7251C360.577 100.145 361.87 107.32 364.549 113.061C367.135 118.897 370.738 123.202 375.264 126.264C379.79 129.23 384.963 130.761 390.69 130.761C396.417 130.761 401.59 129.23 406.116 126.264C410.642 123.298 414.245 118.897 416.831 113.061C419.51 107.32 420.803 100.145 420.803 91.7251Z" fill="#434050"/>
<path d="M447.314 143.581V39.8692H509.388V53.3594H462.371V84.9322H504.954V98.3267H462.371V143.581H447.314Z" fill="#434050"/>
<path d="M520.656 143.581V39.8692H582.73V53.3594H535.713V84.9322H578.296V98.3267H535.713V143.581H520.656Z" fill="#434050"/>
<path d="M609.241 39.8692V143.581H594.092V39.8692H609.241Z" fill="#434050"/>
<path d="M707.156 73.5468H691.915C691.36 70.1982 690.252 67.2323 688.682 64.6491C687.111 62.0658 685.171 59.8653 682.77 58.1431C680.461 56.3253 677.874 54.9859 675.011 54.1248C672.147 53.2637 669.099 52.7853 665.958 52.7853C660.231 52.7853 655.058 54.3161 650.44 57.2821C645.914 60.248 642.311 64.6491 639.725 70.4852C637.138 76.3214 635.753 83.4014 635.753 91.7251C635.753 100.145 637.046 107.32 639.725 113.061C642.311 118.897 645.914 123.298 650.532 126.264C655.058 129.23 660.231 130.761 665.958 130.761C669.099 130.761 672.147 130.282 675.011 129.421C677.874 128.56 680.461 127.221 682.77 125.403C685.079 123.681 687.019 121.48 688.682 118.897C690.252 116.314 691.453 113.443 692.007 110.095L707.248 110.19C706.417 115.261 704.847 119.949 702.537 124.255C700.228 128.56 697.18 132.196 693.577 135.257C689.975 138.319 685.818 140.711 681.107 142.433C676.489 144.155 671.316 144.921 665.866 144.921C657.183 144.921 649.424 142.816 642.681 138.51C635.937 134.205 630.58 128.082 626.7 120.141C622.821 112.2 620.881 102.632 620.881 91.6295C620.881 80.5311 622.821 71.0593 626.793 63.1183C630.765 55.1772 636.03 49.054 642.865 44.7486C649.608 40.4432 657.368 38.3384 665.958 38.3384C671.316 38.3384 676.211 39.1038 680.83 40.7303C685.449 42.2611 689.605 44.5573 693.3 47.6189C696.995 50.6805 700.043 54.3161 702.445 58.6215C704.662 63.0226 706.232 67.9977 707.156 73.5468Z" fill="#434050"/>
<path d="M717.962 143.581V39.8692H780.775V53.3594H733.111V84.9322H777.542V98.3267H733.111V130.091H781.421V143.581H717.962Z" fill="#434050"/>
<path d="M63.7644 149.321L66.2017 153.785C66.2017 153.882 66.2992 153.882 66.2992 153.979L44.0713 141.461L16.2864 125.838C10.7295 122.733 8.29219 116.328 10.047 110.603C10.3395 109.633 10.7295 108.76 11.2169 107.789L11.6069 107.013C11.6069 107.013 11.6069 107.013 11.6069 106.916L12.5818 105.169C15.604 99.8322 22.4283 97.8915 27.8878 100.9L29.6427 101.87H29.7402L38.4168 106.722L57.33 117.396L77.9006 128.943L68.249 134.183C62.7895 137.094 60.8397 143.887 63.7644 149.321Z" fill="#1D88FE"/>
<path d="M84.4319 156.599C83.652 157.181 82.6772 157.666 81.7998 158.055L84.4319 156.599Z" fill="#1D88FE"/>
<path d="M141.757 125.159C141.172 125.741 140.49 126.226 139.71 126.614L84.4327 156.599L81.8005 158.054L81.4105 158.248C76.0485 161.16 69.4192 159.219 66.2995 153.979C66.2995 153.882 66.202 153.882 66.202 153.785L63.7647 149.321C60.84 143.887 62.7898 137.094 68.2493 134.183L77.9008 128.943L118.165 107.11V116.037C118.165 122.248 123.234 127.197 129.376 127.197H135.323C137.663 127.197 139.905 126.42 141.757 125.159Z" fill="#4A3AFF"/>
<path d="M146.534 49.5672V116.037C146.534 119.822 144.682 123.121 141.757 125.159C139.904 126.42 137.76 127.197 135.322 127.197H129.375C123.234 127.197 118.164 122.248 118.164 116.037V57.136L126.841 62.1819C132.203 65.2871 139.027 63.5405 142.147 58.2034L144.779 53.8368C145.949 51.702 146.436 49.4701 146.241 47.2383C146.436 47.9175 146.534 48.6938 146.534 49.5672Z" fill="#F24C2E"/>
<path d="M144.779 53.8371L142.147 58.2037C139.027 63.5407 132.203 65.2874 126.841 62.1822L118.164 57.1363L77.998 33.6534L86.9672 28.2193C92.2317 25.0171 93.889 18.1275 90.6718 12.8875L88.0396 8.52087C87.7471 8.03568 87.4546 7.5505 87.0647 7.16235L140.782 38.6023C143.999 40.446 145.949 43.7452 146.242 47.1415C146.437 49.3734 145.949 51.7022 144.779 53.8371Z" fill="#FF9500"/>
<path d="M86.9668 28.2189L77.9977 33.653L38.4164 57.6211V48.4996C38.4164 42.2892 33.3469 37.3404 27.205 37.3404H21.2581C20.1857 37.3404 19.2107 37.4374 18.2358 37.7285L72.6357 4.83304C77.4127 1.92193 83.5546 2.98934 87.0643 7.16192C87.4543 7.55007 87.7467 8.03525 88.0392 8.52044L90.6715 12.8871C93.8886 18.1271 92.2313 25.0167 86.9668 28.2189Z" fill="#FADA00"/>
<path d="M38.4167 48.4998V106.722L29.74 101.87H29.6425L27.8877 100.9C22.4282 97.8915 15.6038 99.8322 12.5816 105.169L11.6067 106.916C11.6067 107.013 11.6067 107.013 11.6067 107.013L11.2168 107.789C10.7293 108.663 10.3393 109.633 10.0469 110.603V48.4998C10.0469 43.4539 13.5565 39.0872 18.2361 37.7287C19.211 37.4376 20.1859 37.3405 21.2583 37.3405H27.2052C33.3472 37.3405 38.4167 42.2894 38.4167 48.4998Z" fill="#70B61C"/>
</svg>
