<svg width="24" height="25" viewBox="0 0 24 25" fill="none" xmlns="http://www.w3.org/2000/svg">
<path d="M18.4704 17.33L18.8604 20.49C18.9604 21.32 18.0704 21.9 17.3604 21.47L13.9004 19.41C13.6604 19.27 13.6004 18.97 13.7304 18.73C14.2304 17.81 14.5004 16.77 14.5004 15.73C14.5004 12.07 11.3604 9.09 7.50038 9.09C6.71038 9.09 5.94038 9.21 5.22038 9.45C4.85038 9.57 4.49038 9.23 4.58038 8.85C5.49038 5.21 8.99038 2.5 13.1704 2.5C18.0504 2.5 22.0004 6.19 22.0004 10.74C22.0004 13.44 20.6104 15.83 18.4704 17.33Z" fill="#00AEEF"/>
<path d="M13 15.7298C13 16.9198 12.56 18.0198 11.82 18.8898C10.83 20.0898 9.26 20.8598 7.5 20.8598L4.89 22.4098C4.45 22.6798 3.89 22.3098 3.95 21.7998L4.2 19.8298C2.86 18.8998 2 17.4098 2 15.7298C2 13.9698 2.94 12.4198 4.38 11.4998C5.27 10.9198 6.34 10.5898 7.5 10.5898C10.54 10.5898 13 12.8898 13 15.7298Z" fill="#00AEEF"/>
</svg>
