<svg width="383" height="115" viewBox="0 0 383 115" fill="none" xmlns="http://www.w3.org/2000/svg">
<g filter="url(#filter0_d_1_3)">
<path fill-rule="evenodd" clip-rule="evenodd" d="M143.682 38C150.819 38 156.558 32.422 159.728 26.0282C165.613 14.1592 177.854 6 192 6C206.146 6 218.387 14.1592 224.272 26.0282C227.442 32.422 233.181 38 240.318 38H365C372.732 38 379 44.268 379 52V112C379 112.552 378.552 113 378 113H4.99999C4.44771 113 4 112.552 4 112V52C4 44.268 10.268 38 18 38H143.682Z" fill="white"/>
</g>
<defs>
<filter id="filter0_d_1_3" x="0" y="0" width="383" height="115" filterUnits="userSpaceOnUse" color-interpolation-filters="sRGB">
<feFlood flood-opacity="0" result="BackgroundImageFix"/>
<feColorMatrix in="SourceAlpha" type="matrix" values="0 0 0 0 0 0 0 0 0 0 0 0 0 0 0 0 0 0 127 0" result="hardAlpha"/>
<feOffset dy="-2"/>
<feGaussianBlur stdDeviation="2"/>
<feComposite in2="hardAlpha" operator="out"/>
<feColorMatrix type="matrix" values="0 0 0 0 0 0 0 0 0 0 0 0 0 0 0 0 0 0 0.25 0"/>
<feBlend mode="normal" in2="BackgroundImageFix" result="effect1_dropShadow_1_3"/>
<feBlend mode="normal" in="SourceGraphic" in2="effect1_dropShadow_1_3" result="shape"/>
</filter>
</defs>
</svg>
