<svg width="151" height="151" viewBox="0 0 151 151" fill="none" xmlns="http://www.w3.org/2000/svg">
<path fill-rule="evenodd" clip-rule="evenodd" d="M75.5 135.5C108.637 135.5 135.5 108.637 135.5 75.5C135.5 42.3629 108.637 15.5 75.5 15.5C60.633 15.5 54.9818 33.3318 44.5 42.2868C31.6188 53.2917 15.5 57.2299 15.5 75.5C15.5 108.637 42.3629 135.5 75.5 135.5Z" fill="#EEF0F6"/>
<path fill-rule="evenodd" clip-rule="evenodd" d="M80.1053 95.2275H51.1496C49.1116 95.2275 47.4434 93.5543 47.4434 91.5094L47.4434 50.2172C47.4434 48.1723 49.1116 46.5 51.1496 46.5H80.1053C82.1442 46.5 83.8124 48.1723 83.8124 50.2172V91.5094C83.8124 93.5543 82.1442 95.2275 80.1053 95.2275Z" fill="#E0E2EE"/>
<path fill-rule="evenodd" clip-rule="evenodd" d="M77.6336 96.9931H48.678C46.6399 96.9931 44.9717 95.32 44.9717 93.2751L44.9717 51.9829C44.9717 49.938 46.6399 48.2656 48.678 48.2656H77.6336C79.6725 48.2656 81.3408 49.938 81.3408 51.9829V93.2751C81.3408 95.32 79.6725 96.9931 77.6336 96.9931Z" fill="#E8EBF2"/>
<path fill-rule="evenodd" clip-rule="evenodd" d="M75.2295 98.389H46.2139C44.1717 98.389 42.5 96.7228 42.5 94.6863L42.5 53.5651C42.5 51.5287 44.1717 49.8633 46.2139 49.8633H75.2295C77.2726 49.8633 78.9443 51.5287 78.9443 53.5651V94.6863C78.9443 96.7228 77.2726 98.389 75.2295 98.389Z" fill="#D8DBEA"/>
<path fill-rule="evenodd" clip-rule="evenodd" d="M75.2295 98.389H46.2139C44.1717 98.389 42.5 96.7228 42.5 94.6863L42.5 53.5651C42.5 51.5287 44.1717 49.8633 46.2139 49.8633H75.2295C77.2726 49.8633 78.9443 51.5287 78.9443 53.5651V94.6863C78.9443 96.7228 77.2726 98.389 75.2295 98.389Z" fill="white"/>
<path fill-rule="evenodd" clip-rule="evenodd" d="M71.0475 62.3881H49.616C49.0039 62.3881 48.5029 61.9115 48.5029 61.3292C48.5029 60.7462 49.0039 60.2695 49.616 60.2695H71.0475C71.6595 60.2695 72.1605 60.7462 72.1605 61.3292C72.1605 61.9115 71.6595 62.3881 71.0475 62.3881Z" fill="#E0E2EE"/>
<path fill-rule="evenodd" clip-rule="evenodd" d="M71.0475 68.7475H49.616C49.0039 68.7475 48.5029 68.2709 48.5029 67.6886C48.5029 67.1055 49.0039 66.6289 49.616 66.6289H71.0475C71.6595 66.6289 72.1605 67.1055 72.1605 67.6886C72.1605 68.2709 71.6595 68.7475 71.0475 68.7475Z" fill="#E0E2EE"/>
<path fill-rule="evenodd" clip-rule="evenodd" d="M71.0475 75.0991H49.616C49.0039 75.0991 48.5029 74.6224 48.5029 74.0402C48.5029 73.4579 49.0039 72.9805 49.616 72.9805H71.0475C71.6595 72.9805 72.1605 73.4579 72.1605 74.0402C72.1605 74.6224 71.6595 75.0991 71.0475 75.0991Z" fill="#E0E2EE"/>
<path fill-rule="evenodd" clip-rule="evenodd" d="M71.0475 81.4545H49.616C49.0039 81.4545 48.5029 80.9779 48.5029 80.3956C48.5029 79.8126 49.0039 79.3359 49.616 79.3359H71.0475C71.6595 79.3359 72.1605 79.8126 72.1605 80.3956C72.1605 80.9779 71.6595 81.4545 71.0475 81.4545Z" fill="#E0E2EE"/>
<path fill-rule="evenodd" clip-rule="evenodd" d="M60.8029 87.8139H49.6207C49.0061 87.8139 48.5029 87.3373 48.5029 86.755C48.5029 86.1719 49.0061 85.6953 49.6207 85.6953H60.8029C61.4175 85.6953 61.9206 86.1719 61.9206 86.755C61.9206 87.3373 61.4175 87.8139 60.8029 87.8139Z" fill="#E0E2EE"/>
<path fill-rule="evenodd" clip-rule="evenodd" d="M83.3718 79.6007C79.0864 83.8854 72.452 84.3688 67.6355 81.0607C67.0199 80.6304 66.434 80.147 65.8877 79.6007C65.6064 79.3204 65.3413 79.0311 65.0915 78.7265C64.5919 78.1183 64.1543 77.4696 63.7957 76.7994C63.164 75.6673 62.7345 74.4661 62.4999 73.2244C61.7433 69.3305 62.8746 65.1393 65.8877 62.1277C68.9079 59.1071 73.0999 57.9831 76.9944 58.7324C78.2354 58.9741 79.4377 59.4036 80.57 60.028C81.2412 60.3946 81.881 60.8321 82.4903 61.3316C82.794 61.5805 83.0834 61.8464 83.3637 62.1277C83.911 62.6739 84.4016 63.2588 84.8239 63.8752C88.1335 68.6899 87.6492 75.3241 83.3718 79.6007Z" fill="white" fill-opacity="0.1"/>
<path fill-rule="evenodd" clip-rule="evenodd" d="M82.1737 78.7552C77.7153 83.2144 70.4901 83.2136 66.0308 78.7552C61.5774 74.3017 61.5774 67.0757 66.0366 62.6173C70.4901 58.1638 77.7153 58.1638 82.1688 62.6173C86.6272 67.0757 86.6272 74.3017 82.1737 78.7552ZM84.4613 60.3272C78.7385 54.6045 69.465 54.6045 63.7422 60.3272C58.0202 66.0492 58.0153 75.3286 63.7372 81.0514C68.9456 86.2581 77.1092 86.7277 82.851 82.4526C83.4118 82.0345 83.9519 81.5657 84.4671 81.0514C84.9815 80.5362 85.4502 79.9961 85.8675 79.4352C90.1426 73.6926 89.6689 65.5348 84.4613 60.3272Z" fill="#E0E2EE"/>
<path fill-rule="evenodd" clip-rule="evenodd" d="M106.984 102.623L106.743 102.863C105.154 104.454 102.551 104.454 100.961 102.863L86.2842 88.187L92.3071 82.1641L106.984 96.8405C108.574 98.4308 108.574 101.033 106.984 102.623Z" fill="url(#paint0_linear_13782_197135)"/>
<path fill-rule="evenodd" clip-rule="evenodd" d="M86.1836 78.9883L90.5205 83.3252L87.4416 86.4033L83.1055 82.0664C83.6777 81.6397 84.228 81.1614 84.7546 80.6365C85.2794 80.1117 85.7578 79.5606 86.1836 78.9883Z" fill="#E0E2EE"/>
<path fill-rule="evenodd" clip-rule="evenodd" d="M106.763 96.6602L100.779 102.644L99.7012 101.566L105.685 95.582L106.763 96.6602Z" fill="#00AEEF"/>
<path fill-rule="evenodd" clip-rule="evenodd" d="M92.6391 82.3704L86.4907 88.519L85.5771 87.6056L91.7256 81.457L92.6391 82.3704Z" fill="url(#paint1_linear_13782_197135)"/>
<path fill-rule="evenodd" clip-rule="evenodd" d="M79.222 61.0827L64.1435 76.1605C63.5756 75.1427 63.1895 74.0628 62.9795 72.9465L76.0079 59.918C77.1234 60.1361 78.2042 60.5213 79.222 61.0827Z" fill="white" fill-opacity="0.5"/>
<path fill-rule="evenodd" clip-rule="evenodd" d="M84.1654 64.6675L67.8638 80.0455C67.2801 79.6612 66.7244 79.2287 66.2063 78.7398C65.9395 78.4882 65.6872 78.2301 65.4512 77.9575L81.9513 62.3906C82.2402 62.6141 82.5146 62.8521 82.7805 63.1038C83.2986 63.5926 83.7648 64.116 84.1654 64.6675Z" fill="white" fill-opacity="0.5"/>
<defs>
<linearGradient id="paint0_linear_13782_197135" x1="97.2302" y1="71.218" x2="75.3381" y2="93.1101" gradientUnits="userSpaceOnUse">
<stop stop-color="#5D5FEF"/>
<stop offset="1" stop-color="#9ED4FF"/>
</linearGradient>
<linearGradient id="paint1_linear_13782_197135" x1="89.1081" y1="77.9261" x2="82.0462" y2="84.988" gradientUnits="userSpaceOnUse">
<stop stop-color="#5D5FEF"/>
<stop offset="1" stop-color="#9ED4FF"/>
</linearGradient>
</defs>
</svg>
