<svg width="24" height="25" viewBox="0 0 24 25" fill="none" xmlns="http://www.w3.org/2000/svg">
<path d="M3 8.7C3 7.5799 3 7.01984 3.21799 6.59202C3.40973 6.21569 3.71569 5.90973 4.09202 5.71799C4.51984 5.5 5.0799 5.5 6.2 5.5H9.67452C10.1637 5.5 10.4083 5.5 10.6385 5.55526C10.8425 5.60425 11.0376 5.68506 11.2166 5.79472C11.4184 5.9184 11.5914 6.09135 11.9373 6.43726L12.0627 6.56274C12.4086 6.90865 12.5816 7.0816 12.7834 7.20528C12.9624 7.31494 13.1575 7.39575 13.3615 7.44474C13.5917 7.5 13.8363 7.5 14.3255 7.5H17.8C18.9201 7.5 19.4802 7.5 19.908 7.71799C20.2843 7.90973 20.5903 8.21569 20.782 8.59202C21 9.01984 21 9.5799 21 10.7V16.3C21 17.4201 21 17.9802 20.782 18.408C20.5903 18.7843 20.2843 19.0903 19.908 19.282C19.4802 19.5 18.9201 19.5 17.8 19.5H6.2C5.0799 19.5 4.51984 19.5 4.09202 19.282C3.71569 19.0903 3.40973 18.7843 3.21799 18.408C3 17.9802 3 17.4201 3 16.3V8.7Z" fill="#00AEEF"/>
</svg>
