<svg width="25" height="24" viewBox="0 0 25 24" fill="none" xmlns="http://www.w3.org/2000/svg">
<path d="M12.0672 16.8652C11.1717 16.8652 10.5 17.5776 10.5 18.4324C10.5 19.2669 11.1717 19.9996 12.0672 19.9996C12.9017 19.9996 13.614 19.2669 13.614 18.4324C13.614 17.5776 12.9016 16.8652 12.0672 16.8652Z" fill="#EB5454"/>
<path d="M12.047 5C11.2125 5 10.5613 5.44777 10.5613 6.24156C10.5613 8.66349 10.8462 12.1438 10.8462 14.5658C10.8462 15.1967 11.3958 15.4612 12.0471 15.4612C12.5355 15.4612 13.2275 15.1967 13.2275 14.5658C13.2275 12.1438 13.5124 8.66356 13.5124 6.24156C13.5124 5.44783 12.8408 5 12.047 5Z" fill="#EB5454"/>
</svg>
